<?xml version="1.0" encoding="utf-8"?>
<!-- Generator: Adobe Illustrator 18.1.1, SVG Export Plug-In . SVG Version: 6.00 Build 0)  -->
<svg version="1.1" id="Layer_1" xmlns="http://www.w3.org/2000/svg" xmlns:xlink="http://www.w3.org/1999/xlink" x="0px" y="0px"
	 viewBox="0 0 51 48.2" enable-background="new 0 0 51 48.2" xml:space="preserve">
<g>
	<path fill="#FFC709" d="M26.7,7.2c0.1,0,0.2,0,0.2,0l0.1,0c0.7-0.2,1.2-0.9,1.1-1.6c-0.1-0.7-0.9-1.2-1.6-1.1l0,0
		c-0.7,0.1-1.2,0.8-1.1,1.6C25.4,6.7,26,7.2,26.7,7.2z"/>
	<path fill="#FFC709" d="M26.9,41.3c-0.7-0.1-1.5,0.3-1.6,1.1c-0.1,0.7,0.3,1.5,1.1,1.6l0.1,0c0.1,0,0.2,0,0.2,0
		c0.7,0,1.2-0.5,1.3-1.1C28.2,42.2,27.7,41.5,26.9,41.3z"/>
	<path fill="#FFC709" d="M38.7,9.2c0.2,0.1,0.5,0.2,0.7,0.2c0.5,0,0.9-0.2,1.2-0.7c0.4-0.6,0.2-1.5-0.5-1.9l-0.1,0
		c-0.7-0.4-1.5-0.1-1.8,0.5C37.7,8,38,8.9,38.7,9.2z"/>
	<path fill="#FFC709" d="M47.6,19.2c0.2,0,0.3,0,0.5-0.1c0.7-0.3,1.1-1,0.8-1.7l0-0.1c-0.3-0.7-1.1-1-1.8-0.8
		c-0.7,0.3-1.1,1.1-0.8,1.8C46.5,18.9,47,19.2,47.6,19.2z"/>
	<path fill="#FFC709" d="M32.9,7.2L32.9,7.2c0.1,0,0.2,0,0.3,0c0.7,0,1.2-0.5,1.3-1.1c0.1-0.7-0.4-1.4-1.1-1.6l-0.1,0
		c-0.7-0.1-1.4,0.4-1.6,1.1C31.7,6.3,32.2,7,32.9,7.2z"/>
	<path fill="#FFC709" d="M48,29.4c-0.7-0.3-1.5,0.1-1.7,0.8c0,0,0,0.1,0,0.1C46,31,46.4,31.7,47.1,32c0.1,0.1,0.3,0.1,0.4,0.1
		c0.6,0,1.1-0.4,1.3-0.9c0,0,0,0,0,0C49.1,30.4,48.7,29.6,48,29.4z"/>
	<path fill="#FFC709" d="M45.2,35.2c-0.6-0.5-1.5-0.4-1.9,0.2c-0.5,0.6-0.4,1.4,0.2,1.9c0.3,0.2,0.6,0.3,0.9,0.3
		c0.4,0,0.8-0.2,1-0.5l0.1-0.1C45.8,36.6,45.8,35.7,45.2,35.2z"/>
	<path fill="#FFC709" d="M33,41.3l-0.1,0c-0.7,0.1-1.2,0.9-1.1,1.6c0.1,0.7,0.7,1.1,1.3,1.1c0.1,0,0.2,0,0.3,0l0,0
		c0.7-0.1,1.2-0.8,1.1-1.6C34.5,41.7,33.8,41.2,33,41.3z"/>
	<path fill="#FFC709" d="M48.7,22.8c-0.7,0-1.4,0.6-1.4,1.4v0.1c0,0,0,0,0,0v0c0,0.8,0.6,1.4,1.4,1.4c0.8,0,1.4-0.6,1.4-1.4v-0.1
		c0,0,0,0,0,0v0C50.1,23.4,49.4,22.8,48.7,22.8z"/>
	<path fill="#FFC709" d="M38.7,39.3L38.7,39.3c-0.7,0.4-0.9,1.3-0.5,1.9c0.3,0.4,0.7,0.7,1.2,0.7c0.2,0,0.5-0.1,0.7-0.2l0,0
		c0.7-0.4,0.9-1.2,0.5-1.9C40.1,39.1,39.3,38.9,38.7,39.3z"/>
	<path fill="#FFC709" d="M43.3,13.1c0.3,0.3,0.6,0.5,1,0.5c0.3,0,0.6-0.1,0.9-0.3c0.6-0.5,0.6-1.3,0.1-1.9l0,0
		c-0.5-0.6-1.3-0.7-1.9-0.2C42.8,11.6,42.7,12.5,43.3,13.1L43.3,13.1z"/>
	<g>
		<g>
			<path fill="#FFC709" d="M20.9,28.1h-3.1c1.3-1.7,2.1-2.8,2.5-3.3c0.8-1.1,1.1-2.1,1.1-2.9c0-0.9-0.3-1.5-0.8-2.1
				c-0.5-0.5-1.2-0.8-2-0.8c-0.8,0-1.4,0.3-2,0.9c-0.6,0.6-0.9,1.4-0.9,2.3c0,0.2,0.1,0.4,0.2,0.6c0.1,0.1,0.3,0.2,0.5,0.2
				c0.1,0,0.2,0,0.3-0.1c0.1-0.1,0.2-0.3,0.3-0.6c0.1-0.5,0.2-0.8,0.3-0.9c0.3-0.5,0.7-0.8,1.2-0.8c0.4,0,0.7,0.2,0.9,0.5
				c0.2,0.3,0.3,0.6,0.3,1.1c0,0.5-0.2,1-0.5,1.6c-0.4,0.7-1,1.5-1.7,2.4c-0.8,1-1.3,1.7-1.7,2.2c-0.2,0.2-0.2,0.4-0.2,0.6
				c0,0.5,0.3,0.7,0.8,0.7H21c0.5,0,0.7-0.2,0.7-0.7C21.7,28.4,21.4,28.1,20.9,28.1z"/>
		</g>
		<g>
			<path fill="#FFC709" d="M28.3,25.7h-0.5v-5.1c0-0.5-0.1-0.9-0.3-1.2c-0.2-0.3-0.5-0.4-0.9-0.4c-0.5,0-0.9,0.2-1.1,0.7l-3,6.3
				c-0.1,0.2-0.1,0.4-0.1,0.5c0,0.2,0.1,0.3,0.2,0.4c0.1,0.1,0.3,0.2,0.5,0.2h3.5v1.6c0,0.6,0.2,0.9,0.7,0.9c0.5,0,0.7-0.3,0.7-0.9
				V27h0.5c0.2,0,0.4-0.1,0.5-0.2c0.1-0.1,0.2-0.3,0.2-0.5c0-0.2-0.1-0.4-0.2-0.5C28.6,25.7,28.5,25.7,28.3,25.7z M26.4,25.7h-2.6
				l2.4-4.9l0.2,0V25.7z"/>
		</g>
		<g>
			<path fill="#FFC709" d="M34.2,18.9c-0.2,0-0.4,0.1-0.5,0.4L30,28.8c-0.1,0.2-0.1,0.3-0.1,0.3c0,0.2,0.1,0.3,0.2,0.4
				c0.1,0.1,0.2,0.1,0.4,0.1c0.2,0,0.4-0.1,0.5-0.4l3.7-9.5c0.1-0.2,0.1-0.3,0.1-0.3C34.7,19.1,34.5,18.9,34.2,18.9z"/>
		</g>
		<g>
			<path fill="#FFC709" d="M41.8,19.1h-4.9c-0.5,0-0.7,0.2-0.7,0.7c0,0.5,0.2,0.7,0.7,0.7h4l-3.6,7.8c-0.1,0.2-0.1,0.3-0.1,0.4
				c0,0.2,0.1,0.4,0.3,0.5c0.2,0.2,0.4,0.2,0.6,0.2c0.2,0,0.4-0.1,0.5-0.2c0.1-0.1,0.2-0.3,0.4-0.7l3.4-7.8c0.2-0.4,0.3-0.7,0.3-0.9
				c0-0.1,0-0.2,0-0.2C42.3,19.2,42.1,19.1,41.8,19.1z"/>
		</g>
	</g>
	<path fill="#FFC709" d="M18.6,13.4c0.1,0,0.2,0,0.2,0c2.5,0,4.3-2.7,4.3-6.5c0-3.8-1.8-6.5-4.3-6.5C9.4,0.5,1.7,11.1,1.7,24.2
		c0,13,7.6,23.6,16.9,23.8c0.1,0,0.2,0,0.3,0c2.5,0,4.3-2.7,4.3-6.5c0-3.8-1.8-6.5-4.3-6.5c-5.1,0-8.7-4.5-8.7-10.8
		C10.2,18,13.6,13.6,18.6,13.4z M7.7,24.2c0,7.7,4.7,13.3,11.1,13.3c1.1,0,1.9,1.8,1.9,4.1c0,2.2-0.7,3.9-1.7,4c-0.1,0-0.1,0-0.2,0
		c-8.1,0-14.8-9.6-14.8-21.3c0-11.8,6.6-21.3,14.8-21.3c1.1,0,1.9,1.8,1.9,4.1c0,2.2-0.7,3.9-1.7,4c-0.1,0-0.1,0-0.2,0
		C12.4,11,7.7,16.6,7.7,24.2z"/>
</g>
</svg>
