<?xml version="1.0" encoding="utf-8"?>
<!-- Generator: Adobe Illustrator 18.1.1, SVG Export Plug-In . SVG Version: 6.00 Build 0)  -->
<svg version="1.1" id="Layer_1" xmlns="http://www.w3.org/2000/svg" xmlns:xlink="http://www.w3.org/1999/xlink" x="0px" y="0px"
	 viewBox="0 0 22.7 25.5" enable-background="new 0 0 22.7 25.5" xml:space="preserve">
<g>
	<g>
		<path fill="#48505A" d="M20.5,0.8C20.3,0.8,20,1,20,1.3c0,0.6-0.5,1.1-1.1,1.1c-0.6,0-1.1-0.5-1.1-1.1c0-0.3-0.2-0.5-0.5-0.5
			c-0.3,0-0.5,0.2-0.5,0.5c0,0.6-0.5,1.1-1.1,1.1s-1.1-0.5-1.1-1.1c0-0.3-0.2-0.5-0.5-0.5c-0.3,0-0.5,0.2-0.5,0.5
			c0,0.6-0.5,1.1-1.1,1.1c-0.6,0-1.1-0.5-1.1-1.1c0-0.3-0.2-0.5-0.5-0.5c-0.3,0-0.5,0.2-0.5,0.5c0,0.6-0.5,1.1-1.1,1.1
			c-0.6,0-1.1-0.5-1.1-1.1c0-0.3-0.2-0.5-0.5-0.5C7.7,0.8,7.4,1,7.4,1.3c0,0.6-0.5,1.1-1.1,1.1c-0.6,0-1.1-0.5-1.1-1.1
			C5.3,1,5,0.8,4.8,0.8C4.5,0.8,4.3,1,4.3,1.3c0,0.6-0.5,1.1-1.1,1.1S2.1,1.9,2.1,1.3c0-0.3-0.2-0.5-0.5-0.5C1.4,0.8,1.2,1,1.2,1.3
			v20.4c0,1.4,1.2,2.6,2.6,2.6h14.6c1.4,0,2.6-1.2,2.6-2.6V1.3C21,1,20.8,0.8,20.5,0.8z M18.4,23.4H3.8c-0.9,0-1.7-0.8-1.7-1.7V5.6
			h1.7c0.3,0,0.5-0.2,0.5-0.5c0-0.3-0.2-0.5-0.5-0.5H2.1V3c0.3,0.2,0.7,0.3,1.1,0.3c0.6,0,1.2-0.3,1.6-0.7c0.4,0.5,0.9,0.7,1.6,0.7
			c0.6,0,1.2-0.3,1.6-0.7c0.4,0.5,0.9,0.7,1.6,0.7c0.6,0,1.2-0.3,1.6-0.7c0.4,0.5,0.9,0.7,1.6,0.7c0.6,0,1.2-0.3,1.6-0.7
			c0.4,0.5,0.9,0.7,1.6,0.7c0.6,0,1.2-0.3,1.6-0.7c0.4,0.5,0.9,0.7,1.6,0.7c0.4,0,0.8-0.1,1.1-0.3v1.7h-1.7c-0.3,0-0.5,0.2-0.5,0.5
			c0,0.3,0.2,0.5,0.5,0.5H20v16.1C20,22.6,19.3,23.4,18.4,23.4z"/>
		<path fill="#48505A" d="M8,4.7H5.8c-0.3,0-0.5,0.2-0.5,0.5c0,0.3,0.2,0.5,0.5,0.5H8c0.3,0,0.5-0.2,0.5-0.5C8.5,4.9,8.3,4.7,8,4.7z
			"/>
		<path fill="#48505A" d="M12.2,4.7H10c-0.3,0-0.5,0.2-0.5,0.5c0,0.3,0.2,0.5,0.5,0.5h2.2c0.3,0,0.5-0.2,0.5-0.5
			C12.6,4.9,12.4,4.7,12.2,4.7z"/>
		<path fill="#48505A" d="M16.3,4.7h-2.2c-0.3,0-0.5,0.2-0.5,0.5c0,0.3,0.2,0.5,0.5,0.5h2.2c0.3,0,0.5-0.2,0.5-0.5
			C16.8,4.9,16.6,4.7,16.3,4.7z"/>
	</g>
	<path fill="#48505A" d="M11.1,19.3c-3.4,0-6.1-2.7-6.1-6.1C5,9.8,7.7,7,11.1,7c3.4,0,6.1,2.7,6.1,6.1
		C17.2,16.5,14.4,19.3,11.1,19.3z M11.1,8c-2.8,0-5.2,2.3-5.2,5.2c0,2.8,2.3,5.2,5.2,5.2c2.8,0,5.2-2.3,5.2-5.2
		C16.2,10.3,13.9,8,11.1,8z"/>
	<path fill="#48505A" d="M8.6,16.1c-0.1,0-0.2,0-0.3-0.1c-0.2-0.2-0.2-0.5,0-0.7l5.1-5.1c0.2-0.2,0.5-0.2,0.7,0
		c0.2,0.2,0.2,0.5,0,0.7l-5.1,5.1C8.8,16,8.7,16.1,8.6,16.1z"/>
	<path fill="#48505A" d="M9.4,12.7c-0.4,0-0.7-0.1-1-0.4c-0.3-0.3-0.4-0.6-0.4-1c0-0.4,0.1-0.7,0.4-1C8.7,10.1,9,10,9.4,10
		c0.4,0,0.7,0.1,1,0.4c0.3,0.3,0.4,0.6,0.4,1c0,0.4-0.1,0.7-0.4,1C10.1,12.5,9.8,12.7,9.4,12.7z M9.4,10.9c-0.1,0-0.2,0-0.3,0.1
		C9,11.1,9,11.2,9,11.3c0,0.1,0,0.2,0.1,0.3c0.2,0.2,0.4,0.2,0.6,0c0.1-0.1,0.1-0.2,0.1-0.3c0-0.1,0-0.2-0.1-0.3
		C9.6,11,9.5,10.9,9.4,10.9z"/>
	<path fill="#48505A" d="M12.8,16.1c-0.7,0-1.4-0.6-1.4-1.4c0-0.7,0.6-1.4,1.4-1.4c0.4,0,0.7,0.1,1,0.4c0.3,0.3,0.4,0.6,0.4,1
		c0,0.4-0.1,0.7-0.4,1C13.5,15.9,13.2,16.1,12.8,16.1z M12.8,14.3c-0.2,0-0.4,0.2-0.4,0.4c0,0.2,0.2,0.4,0.4,0.4
		c0.1,0,0.2,0,0.3-0.1c0.1-0.1,0.1-0.2,0.1-0.3c0-0.1,0-0.2-0.1-0.3C13,14.3,12.9,14.3,12.8,14.3z"/>
	<path fill="#48505A" d="M16.7,21.8H5.8c-0.3,0-0.5-0.2-0.5-0.5c0-0.3,0.2-0.5,0.5-0.5h10.9c0.3,0,0.5,0.2,0.5,0.5
		C17.2,21.6,17,21.8,16.7,21.8z"/>
</g>
</svg>
