<?xml version="1.0" encoding="utf-8"?>
<!-- Generator: Adobe Illustrator 18.1.1, SVG Export Plug-In . SVG Version: 6.00 Build 0)  -->
<svg version="1.1" id="Layer_1" xmlns="http://www.w3.org/2000/svg" xmlns:xlink="http://www.w3.org/1999/xlink" x="0px" y="0px"
	 viewBox="0 0 36.8 31.2" enable-background="new 0 0 36.8 31.2" xml:space="preserve">
<g>
	<path fill="#FFC709" d="M31.5,3.6c0.3,0,0.5,0,0.8,0.1c0,0,0,0,0-0.1c-0.3-2-2-3.6-4.1-3.6c-2.1,0-3.8,1.6-4.1,3.6h-1.6
		c-0.3-2-2-3.6-4.1-3.6c-2.1,0-3.8,1.6-4.1,3.6h-1.6c-0.3-2-2-3.6-4.1-3.6C6.6,0,4.8,1.6,4.6,3.6c0,0,0,0.1,0,0.1C2.5,4,1,5.8,1,7.9
		v17.7C1,28,2.9,30,5.3,30h26.2c2.4,0,4.3-1.9,4.3-4.3V7.9C35.8,5.5,33.9,3.6,31.5,3.6z M28.1,1.4c1.3,0,2.4,0.9,2.6,2.2h-5.3
		C25.7,2.4,26.8,1.4,28.1,1.4z M18.4,1.4c1.3,0,2.4,0.9,2.6,2.2h-5.3C16,2.4,17.1,1.4,18.4,1.4z M8.6,1.4c1.3,0,2.4,0.9,2.6,2.2H6
		C6.3,2.4,7.3,1.4,8.6,1.4z M34.8,25.6c0,1.8-1.5,3.3-3.3,3.3H5.3c-1.8,0-3.3-1.5-3.3-3.3V11.8h32.7V25.6z M34.8,10.4H2V7.9
		c0-1.6,1.1-2.9,2.6-3.2c0.3,2,2,3.5,4.1,3.5c0.4,0,0.7-0.3,0.7-0.7c0-0.4-0.3-0.7-0.7-0.7C7.3,6.8,6.3,5.9,6,4.7h8.3
		c0.3,2,2,3.6,4.1,3.6c0.4,0,0.7-0.3,0.7-0.7c0-0.4-0.3-0.7-0.7-0.7c-1.3,0-2.4-0.9-2.6-2.2h8.3c0.3,2,2,3.6,4.1,3.6
		c0.4,0,0.7-0.3,0.7-0.7c0-0.4-0.3-0.7-0.7-0.7c-1.3,0-2.4-0.9-2.6-2.2h6c1.8,0,3.3,1.5,3.3,3.3V10.4z"/>
	<path fill="#FFC709" d="M4.6,27.1h4.8c0.3,0,0.5-0.2,0.5-0.5v-4.8c0-0.3-0.2-0.5-0.5-0.5H4.6c-0.3,0-0.5,0.2-0.5,0.5v4.8
		C4.1,26.8,4.3,27.1,4.6,27.1z M5.2,22.3h3.7V26H5.2V22.3z"/>
	<path fill="#FFC709" d="M12.2,27.1H17c0.3,0,0.5-0.2,0.5-0.5v-4.8c0-0.3-0.2-0.5-0.5-0.5h-4.8c-0.3,0-0.5,0.2-0.5,0.5v4.8
		C11.7,26.8,11.9,27.1,12.2,27.1z M12.8,22.3h3.7V26h-3.7V22.3z"/>
	<path fill="#FFC709" d="M19.8,27.1h4.8c0.3,0,0.5-0.2,0.5-0.5v-4.8c0-0.3-0.2-0.5-0.5-0.5h-4.8c-0.3,0-0.5,0.2-0.5,0.5v4.8
		C19.3,26.8,19.5,27.1,19.8,27.1z M20.4,22.3H24V26h-3.7V22.3z"/>
	<path fill="#FFC709" d="M27.4,19.5h4.8c0.3,0,0.5-0.2,0.5-0.5v-4.8c0-0.3-0.2-0.5-0.5-0.5h-4.8c-0.3,0-0.5,0.2-0.5,0.5v4.8
		C26.9,19.2,27.1,19.5,27.4,19.5z M28,14.7h3.7v3.7H28V14.7z"/>
	<path fill="#FFC709" d="M4.6,19.5h4.8c0.3,0,0.5-0.2,0.5-0.5v-4.8c0-0.3-0.2-0.5-0.5-0.5H4.6c-0.3,0-0.5,0.2-0.5,0.5v4.8
		C4.1,19.2,4.3,19.5,4.6,19.5z M8.8,14.7v2.9l-2.9-2.9H8.8z M5.2,15.5l2.9,2.9H5.2V15.5z"/>
	<path fill="#FFC709" d="M12.2,19.5H17c0.3,0,0.5-0.2,0.5-0.5v-4.8c0-0.3-0.2-0.5-0.5-0.5h-4.8c-0.3,0-0.5,0.2-0.5,0.5v4.8
		C11.7,19.2,11.9,19.5,12.2,19.5z M16.4,14.7v2.9l-2.9-2.9H16.4z M12.8,15.5l2.9,2.9h-2.9V15.5z"/>
	<path fill="#FFC709" d="M19.8,19.5h4.8c0.3,0,0.5-0.2,0.5-0.5v-4.8c0-0.3-0.2-0.5-0.5-0.5h-4.8c-0.3,0-0.5,0.2-0.5,0.5v4.8
		C19.3,19.2,19.5,19.5,19.8,19.5z M24,14.7v2.9l-2.9-2.9H24z M20.4,15.5l2.9,2.9h-2.9V15.5z"/>
	<circle fill="#FFC709" cx="29.8" cy="16.5" r="0.6"/>
	<circle fill="#FFC709" cx="22.2" cy="24.1" r="0.6"/>
	<circle fill="#FFC709" cx="14.6" cy="24.1" r="0.6"/>
	<circle fill="#FFC709" cx="7" cy="24.1" r="0.6"/>
	<path fill="#FFC709" d="M32.3,21.4c-0.3-0.2-0.8-0.1-1,0.3L29.4,25l-1.2-1.4c-0.3-0.3-0.7-0.3-1-0.1c-0.3,0.3-0.3,0.7-0.1,1
		l1.8,2.1c0.1,0.2,0.3,0.2,0.5,0.2c0,0,0,0,0.1,0c0.2,0,0.4-0.2,0.6-0.4l2.4-4.2C32.7,22,32.6,21.6,32.3,21.4z"/>
</g>
</svg>
