<?xml version="1.0" encoding="utf-8"?>
<!-- Generator: Adobe Illustrator 18.1.1, SVG Export Plug-In . SVG Version: 6.00 Build 0)  -->
<svg version="1.1" id="Layer_1" xmlns="http://www.w3.org/2000/svg" xmlns:xlink="http://www.w3.org/1999/xlink" x="0px" y="0px"
	 viewBox="0 0 28.4 28.4" enable-background="new 0 0 28.4 28.4" xml:space="preserve">
<g>
	<path fill="#FFC709" d="M13.5,0.5c-0.1-0.1-0.3-0.2-0.5-0.2H1.7C0.8,0.3,0,1.1,0,2v24.6c0,0.9,0.7,1.6,1.6,1.6H18
		c0.9,0,1.7-0.7,1.7-1.6V7c0-0.2-0.1-0.4-0.2-0.5C16.7,3.8,16.7,3.8,13.5,0.5z M13.7,2.9c0.6,0.6,1,1,1.4,1.4c0.7,0.7,1.2,1.2,2,2
		h-3.2c-0.1,0-0.1-0.1-0.1-0.1V2.9z M18.2,26.6c0,0.1-0.1,0.1-0.1,0.1H1.7c-0.1,0-0.1-0.1-0.1-0.1V2c0-0.1,0.1-0.1,0.1-0.1h10.5v4.3
		c0,0.9,0.7,1.6,1.6,1.6h4.3V26.6z"/>
	<path fill="#FFC709" d="M26,4.3V3.5C26,2.7,25.3,2,24.5,2h-0.1V1.1c0-0.4-0.3-0.8-0.8-0.8c-0.4,0-0.8,0.3-0.8,0.8V2h-0.1
		c-0.8,0-1.5,0.7-1.5,1.5v20.7c0,0.2,0,0.6,1.7,3.6c0.1,0.2,0.4,0.4,0.7,0.4c0.3,0,0.5-0.1,0.7-0.4c1.7-2.9,1.7-3.4,1.7-3.6V5.9
		c0.5,0.3,0.8,0.8,0.8,1.4v6c0,0.4,0.3,0.8,0.8,0.8c0.4,0,0.8-0.3,0.8-0.8v-6C28.4,5.8,27.3,4.6,26,4.3z M23.6,25.9
		c-0.2-0.4-0.4-0.7-0.5-1l1,0C24,25.2,23.8,25.5,23.6,25.9z M24.5,23.7l-1.7,0l0-11.4h1.7V23.7z M24.5,10.8h-1.7l0-7.3l1.7,0V10.8z"
		/>
	<path fill="#FFC709" d="M16.4,15H3.6C3.2,15,3,15.2,3,15.5c0,0.3,0.3,0.6,0.6,0.6h12.8c0.3,0,0.6-0.3,0.6-0.6
		C17,15.2,16.7,15,16.4,15z"/>
	<path fill="#FFC709" d="M16.4,12.3H3.6c-0.3,0-0.6,0.3-0.6,0.6c0,0.3,0.3,0.6,0.6,0.6h12.8c0.3,0,0.6-0.3,0.6-0.6
		C17,12.6,16.7,12.3,16.4,12.3z"/>
	<path fill="#FFC709" d="M16.4,9.6H3.6C3.2,9.6,3,9.9,3,10.2c0,0.3,0.3,0.6,0.6,0.6h12.8c0.3,0,0.6-0.3,0.6-0.6
		C17,9.9,16.7,9.6,16.4,9.6z"/>
	<path fill="#FFC709" d="M10,7H3.6C3.2,7,3,7.2,3,7.6c0,0.3,0.3,0.6,0.6,0.6H10c0.3,0,0.6-0.3,0.6-0.6C10.5,7.2,10.3,7,10,7z"/>
	<path fill="#FFC709" d="M10,2.2H3.6C3.2,2.2,3,2.5,3,2.8c0,0.3,0.3,0.6,0.6,0.6H10c0.3,0,0.6-0.3,0.6-0.6C10.5,2.5,10.3,2.2,10,2.2
		z"/>
	<path fill="#FFC709" d="M16.4,17.6H3.6c-0.3,0-0.6,0.3-0.6,0.6c0,0.3,0.3,0.6,0.6,0.6h12.8c0.3,0,0.6-0.3,0.6-0.6
		C17,17.9,16.7,17.6,16.4,17.6z"/>
	<path fill="#FFC709" d="M16.4,20.3H3.6c-0.3,0-0.6,0.3-0.6,0.6c0,0.3,0.3,0.6,0.6,0.6h12.8c0.3,0,0.6-0.3,0.6-0.6
		C17,20.5,16.7,20.3,16.4,20.3z"/>
	<path fill="#FFC709" d="M16.4,22.9H3.6c-0.3,0-0.6,0.3-0.6,0.6c0,0.3,0.3,0.6,0.6,0.6h12.8c0.3,0,0.6-0.3,0.6-0.6
		C17,23.2,16.7,22.9,16.4,22.9z"/>
</g>
</svg>
