<?xml version="1.0" encoding="utf-8"?>
<!-- Generator: Adobe Illustrator 18.1.1, SVG Export Plug-In . SVG Version: 6.00 Build 0)  -->
<svg version="1.1" id="Layer_1" xmlns="http://www.w3.org/2000/svg" xmlns:xlink="http://www.w3.org/1999/xlink" x="0px" y="0px"
	 viewBox="0 0 36.8 25.5" enable-background="new 0 0 36.8 25.5" xml:space="preserve">
<g>
	<path fill="#FFC709" d="M35.2,19.9V2.8c0-1-0.8-1.8-1.8-1.8H3.8C2.8,1,2,1.8,2,2.8v17.1h0c-1,0-1.8,0.8-1.8,1.8v1.1
		c0,1,0.8,1.8,1.8,1.8h33.1c1,0,1.8-0.8,1.8-1.8v-1.1C36.8,20.7,36.1,20,35.2,19.9z M3.1,2.8c0-0.4,0.3-0.6,0.6-0.6h29.7
		c0.4,0,0.6,0.3,0.6,0.6v17.1h-1.3v-15c0-0.8-0.7-1.5-1.6-1.5H6c-0.9,0-1.6,0.7-1.6,1.5v15H3.1V2.8z M5.5,19.9v-15
		c0-0.2,0.2-0.4,0.5-0.4h25.2c0.3,0,0.5,0.2,0.5,0.4v15H5.5z M35.7,22.7c0,0.4-0.3,0.6-0.6,0.6H2c-0.4,0-0.6-0.3-0.6-0.6v-1.1
		C1.3,21.3,1.6,21,2,21h0.2c0.3,0.6,0.9,1.1,1.6,1.1h10.6c0,0,0,0.1,0,0.1c0,0.3,0.3,0.6,0.6,0.6h7.3c0.3,0,0.6-0.3,0.6-0.6
		c0,0,0-0.1,0-0.1h10.7c0.7,0,1.3-0.4,1.6-1.1h0c0.4,0,0.6,0.3,0.6,0.6V22.7z"/>
	<path fill="#FFC709" d="M19.7,8.5h9.1c0.3,0,0.6-0.3,0.6-0.6c0-0.3-0.3-0.6-0.6-0.6h-9.1c-0.3,0-0.6,0.3-0.6,0.6
		C19.1,8.3,19.4,8.5,19.7,8.5z"/>
	<path fill="#FFC709" d="M19.7,11.2h9.1c0.3,0,0.6-0.3,0.6-0.6c0-0.3-0.3-0.6-0.6-0.6h-9.1c-0.3,0-0.6,0.3-0.6,0.6
		C19.1,10.9,19.4,11.2,19.7,11.2z"/>
	<path fill="#FFC709" d="M26,13.2c0-0.3-0.3-0.6-0.6-0.6h-5.8c-0.3,0-0.6,0.3-0.6,0.6c0,0.3,0.3,0.6,0.6,0.6h5.8
		C25.8,13.8,26,13.6,26,13.2z"/>
	<path fill="#FFC709" d="M27.2,16.2H28c0.3,0,0.6-0.2,0.6-0.6c0-0.3-0.3-0.6-0.6-0.6h-2.1c-0.1,0-0.1,0-0.2,0c0,0,0,0,0,0
		c-0.1,0.1-0.2,0.2-0.3,0.3c0,0,0,0,0,0c0,0.1,0,0.1,0,0.2v2.1c0,0.3,0.3,0.6,0.6,0.6c0.3,0,0.6-0.3,0.6-0.6V17l1.9,1.9
		c0.1,0.1,0.3,0.2,0.4,0.2c0.1,0,0.3-0.1,0.4-0.2c0.2-0.2,0.2-0.6,0-0.8L27.2,16.2z"/>
	<path fill="#FFC709" d="M17.1,6.5c-0.1,0-0.3,0-0.3,0.1c-0.6,0.7-1.3,1.1-2,1.1s-1.5-0.4-2-1.1c-0.1-0.2-0.4-0.2-0.5,0
		c-0.6,0.7-1.3,1.1-2,1.1c-0.8,0-1.5-0.4-2-1.1C8.1,6.5,7.9,6.4,7.8,6.5c-0.1,0-0.2,0.2-0.2,0.3v4.8c0,2.9,1.7,5.1,4.8,6.2
		c0,0,0.1,0,0.1,0c0,0,0.1,0,0.1,0c3-1.1,4.8-3.3,4.8-6.2V6.8C17.4,6.6,17.3,6.5,17.1,6.5z M8.2,11.5v-4c0.6,0.5,1.3,0.8,2,0.8
		c0.7,0,1.3-0.2,1.9-0.7v4.1H8.2C8.2,11.6,8.2,11.6,8.2,11.5z M12.1,17c-1.6-0.7-3.4-2-3.8-4.4h3.8v2.8v1.2V17z M12.9,17v-0.5v-1.2
		v-2.8h2.8h0.7h0.3C16.3,15.1,14.3,16.3,12.9,17z M16.7,11.5c0,0.1,0,0.1,0,0.2h-0.3h-0.7h-2.8V7.6c0.6,0.4,1.2,0.7,1.9,0.7
		c0.7,0,1.4-0.3,2-0.8V11.5z"/>
</g>
</svg>
