<?xml version="1.0" encoding="utf-8"?>
<!-- Generator: Adobe Illustrator 18.1.1, SVG Export Plug-In . SVG Version: 6.00 Build 0)  -->
<svg version="1.1" id="Layer_1" xmlns="http://www.w3.org/2000/svg" xmlns:xlink="http://www.w3.org/1999/xlink" x="0px" y="0px"
	 viewBox="0 0 34 28.4" enable-background="new 0 0 34 28.4" xml:space="preserve">
<g>
	<path fill="#FFC709" d="M31.8,1.3H10.8C10,1.3,9.2,2,9.2,2.8v2H8.1c-0.9,0-1.6,0.7-1.6,1.5v2H5.3C4.5,8.3,3.7,9,3.7,9.8v2.3H2.6
		c-0.9,0-1.6,0.7-1.6,1.5v10C1,24.3,1.7,25,2.6,25h20.9c0.9,0,1.6-0.7,1.6-1.5v-2.3h1.1c0.9,0,1.6-0.7,1.6-1.5v-2H29
		c0.9,0,1.6-0.7,1.6-1.5v-2h1.1c0.9,0,1.6-0.7,1.6-1.5v-10C33.4,2,32.6,1.3,31.8,1.3z M23.8,23.5c0,0-0.1,0.1-0.2,0.1H2.6
		c-0.2,0-0.2-0.1-0.2-0.1v-10c0,0,0.1-0.1,0.2-0.1h20.9c0.2,0,0.2,0.1,0.2,0.1V23.5z M26.5,19.8c0,0-0.1,0.1-0.2,0.1h-1.1v-6.3
		c0-0.8-0.7-1.5-1.6-1.5H5.1V9.8c0,0,0.1-0.1,0.2-0.1h20.9c0.2,0,0.2,0.1,0.2,0.1V19.8z M29.3,16.3c0,0-0.1,0.1-0.2,0.1h-1.1V9.8
		c0-0.8-0.7-1.5-1.6-1.5H7.8v-2c0,0,0.1-0.1,0.2-0.1H29c0.2,0,0.2,0.1,0.2,0.1V16.3z M32,12.8c0,0-0.1,0.1-0.2,0.1h-1.1V6.3
		c0-0.8-0.7-1.5-1.6-1.5H10.6v-2c0,0,0.1-0.1,0.2-0.1h20.9c0.2,0,0.2,0.1,0.2,0.1V12.8z"/>
	<path fill="#FFC709" d="M6.3,16.3c-1.3,0-2.3,1-2.3,2.3c0,1.3,1,2.3,2.3,2.3c1.3,0,2.3-1,2.3-2.3C8.5,17.3,7.5,16.3,6.3,16.3z
		 M6.3,19.4c-0.5,0-0.9-0.4-0.9-0.9c0-0.5,0.4-0.9,0.9-0.9c0.5,0,0.9,0.4,0.9,0.9C7.2,19,6.8,19.4,6.3,19.4z"/>
	<path fill="#FFC709" d="M19.8,16.3c-1.3,0-2.3,1-2.3,2.3c0,1.3,1,2.3,2.3,2.3c1.3,0,2.3-1,2.3-2.3C22.1,17.3,21.1,16.3,19.8,16.3z
		 M19.8,19.4c-0.5,0-0.9-0.4-0.9-0.9c0-0.5,0.4-0.9,0.9-0.9c0.5,0,0.9,0.4,0.9,0.9C20.7,19,20.3,19.4,19.8,19.4z"/>
	<path fill="#FFC709" d="M12.8,14.8h-2.1v4.1H9.8v1h0.9v0.8H9.8v0.9h0.9v1.3h1.5v-1.3h2v-0.9h-2v-0.8h0.6c1.9,0,3.2-0.7,3.2-2.6
		C16,15.6,14.8,14.8,12.8,14.8z M12.8,18.9h-0.6v-3h0.6c1,0,1.7,0.4,1.7,1.5C14.5,18.5,13.8,18.9,12.8,18.9z"/>
</g>
</svg>
