<?xml version="1.0" encoding="utf-8"?>
<!-- Generator: Adobe Illustrator 18.1.1, SVG Export Plug-In . SVG Version: 6.00 Build 0)  -->
<svg version="1.1" id="Layer_1" xmlns="http://www.w3.org/2000/svg" xmlns:xlink="http://www.w3.org/1999/xlink" x="0px" y="0px"
	 viewBox="0 0 65.2 65.2" enable-background="new 0 0 65.2 65.2" xml:space="preserve">
<g>
	<g>
		<path fill="#FFC709" d="M32.8,64.6c-0.3,0-0.5-0.1-0.7-0.3L1.3,33.6C1.1,33.4,1,33.1,1,32.8c0-0.3,0.1-0.5,0.3-0.7L32,1.4
			c0.4-0.4,1.1-0.4,1.5,0l30.7,30.7c0.2,0.2,0.3,0.5,0.3,0.7c0,0.3-0.1,0.5-0.3,0.7L33.5,64.3C33.3,64.5,33,64.6,32.8,64.6z"/>
		<linearGradient id="SVGID_1_" gradientUnits="userSpaceOnUse" x1="16.3779" y1="16.4447" x2="49.1544" y2="49.2211">
			<stop  offset="0" style="stop-color:#FDB913"/>
			<stop  offset="1" style="stop-color:#D68119"/>
		</linearGradient>
		<path fill="url(#SVGID_1_)" d="M64.5,31.8L33.8,1.1c-0.6-0.6-1.5-0.6-2.1,0L1,31.8c-0.3,0.3-0.4,0.6-0.4,1c0,0.4,0.2,0.8,0.4,1
			l30.7,30.7c0.3,0.3,0.6,0.4,1,0.4c0.4,0,0.8-0.2,1-0.4l30.7-30.7c0.3-0.3,0.4-0.6,0.4-1C64.9,32.4,64.8,32.1,64.5,31.8z
			 M64.2,33.6L33.5,64.3c-0.2,0.2-0.5,0.3-0.7,0.3c-0.3,0-0.5-0.1-0.7-0.3L1.3,33.6C1.1,33.4,1,33.1,1,32.8c0-0.3,0.1-0.5,0.3-0.7
			L32,1.4c0.4-0.4,1.1-0.4,1.5,0l30.7,30.7c0.2,0.2,0.3,0.5,0.3,0.7C64.5,33.1,64.4,33.4,64.2,33.6z"/>
		<path opacity="0.1" d="M33.2,61.5c-0.2,0-0.3-0.1-0.4-0.2L5.2,33.7C5,33.6,5,33.4,5,33.3c0-0.2,0.1-0.3,0.2-0.4L32.7,5.2
			C33,5,33.4,5,33.6,5.2l27.6,27.6c0.1,0.1,0.2,0.3,0.2,0.4c0,0.2-0.1,0.3-0.2,0.4L33.6,61.3C33.5,61.4,33.3,61.5,33.2,61.5z
			 M6.5,33.3l26.7,26.7l26.7-26.7L33.2,6.6L6.5,33.3z"/>
		<path d="M32.8,61c-0.2,0-0.3-0.1-0.4-0.2L4.7,33.3c-0.1-0.1-0.2-0.3-0.2-0.4c0-0.2,0.1-0.3,0.2-0.4L32.3,4.8
			c0.2-0.2,0.7-0.2,0.9,0l27.6,27.6c0.1,0.1,0.2,0.3,0.2,0.4c0,0.2-0.1,0.3-0.2,0.4L33.2,60.9C33.1,61,32.9,61,32.8,61z M6.1,32.8
			l26.7,26.7l26.7-26.7L32.8,6.1L6.1,32.8z"/>
	</g>
	<g>
		<path fill="#48505A" d="M41.3,34.7c0.3-1,0.4-2,0.4-3.1c0-3.6-1.8-6.1-5-7c0.2-0.2,0.3-0.5,0.3-0.8v-0.2c0-0.4-0.1-0.7-0.4-0.9
			c1-2.2,1.1-3.4,0.4-3.9c-0.9-0.7-2.5,0.2-3.3,0.8c-0.8-0.5-2.5-1.5-3.3-0.8c-0.7,0.6-0.5,1.8,0.4,3.9c-0.2,0.2-0.4,0.6-0.4,0.9
			v0.2c0,0.3,0.1,0.6,0.3,0.8c-3.2,0.9-5,3.4-5,7c0,0.4,0,0.7,0.1,1.1c-0.3,0-0.6,0-0.9,0c-0.1-0.6-0.6-1.1-1.3-1.1h-3.2
			c-0.7,0-1.3,0.6-1.3,1.3v6.7c0,0.7,0.6,1.3,1.3,1.3h3.2c0.6,0,1.1-0.4,1.3-1c1,0.5,3,1.3,5.8,1.3c3.1,0,7.2-0.9,12-4.2
			c0.1-0.1,0.8-0.6,0.9-1.3c0-0.3,0-0.6-0.4-1C42.7,34.4,42.2,34.4,41.3,34.7z M23.9,39.2L23.9,39.2v0.5c0,0.2-0.2,0.4-0.4,0.4h-3.2
			c-0.2,0-0.4-0.2-0.4-0.4v-6.7c0-0.2,0.2-0.4,0.4-0.4h3.2c0.2,0,0.4,0.2,0.4,0.4V39.2z M31,19.5c0.3-0.2,1.5,0.3,2.5,1
			c0.2,0.1,0.4,0.1,0.5,0c1-0.7,2.2-1.2,2.5-1c0,0,0.4,0.4-0.7,2.8c0,0-0.1,0-0.1,0h-3.9c0,0-0.1,0-0.1,0C30.6,19.9,31,19.5,31,19.5
			z M36.1,23.7v0.2c0,0.2-0.2,0.4-0.4,0.4h-3.9c-0.2,0-0.4-0.2-0.4-0.4v-0.2c0-0.2,0.2-0.4,0.4-0.4h3.9
			C35.9,23.3,36.1,23.5,36.1,23.7z M33.7,25.2c2.1,0,7.1,0.6,7.1,6.5c0,1.2-0.2,2.3-0.6,3.4c-0.3,0.1-0.7,0.3-1.1,0.4
			c-0.6,0.2-1.3,0.5-2.1,0.7c0-0.6-0.1-1.1-0.5-1.5c-0.5-0.5-1.2-0.5-1.2-0.5c-3.1,0.1-3.6-0.2-4.2-0.6c-0.6-0.4-1.4-0.8-4.5-0.9
			c0-0.4-0.1-0.7-0.1-1.1C26.6,25.8,31.6,25.2,33.7,25.2z M42.1,36.3c-9.5,6.4-16.1,3.3-17.3,2.7v-5.3c0.5,0,1,0,1.4,0c0,0,0,0,0,0
			c3.2,0.1,3.9,0.5,4.4,0.8c0.7,0.4,1.3,0.8,4.7,0.7c0,0,0.3,0,0.5,0.2c0.2,0.2,0.2,0.4,0.2,0.8c0,0.1,0,0.2-0.2,0.3
			c-0.4,0.3-1.6,0.8-5.4,0.3c-0.3,0-0.5,0.1-0.5,0.4c0,0.3,0.1,0.5,0.4,0.5c1.2,0.2,2.2,0.2,3,0.2c1,0,1.8-0.1,2.4-0.3c0,0,0,0,0,0
			c1.4-0.5,2.6-0.9,3.6-1.3c1.4-0.5,2.8-1,3-0.9c0.1,0.1,0.1,0.2,0.1,0.2C42.6,35.9,42.3,36.1,42.1,36.3z"/>
		<path fill="#48505A" d="M22,35.8c-0.3,0-0.5,0.2-0.5,0.5v2.3c0,0.3,0.2,0.5,0.5,0.5c0.3,0,0.5-0.2,0.5-0.5v-2.3
			C22.4,36,22.2,35.8,22,35.8z"/>
	</g>
</g>
<g>
	<g>
		<g>
			<g>
				<path fill="#48505A" d="M33.3,31.2h1.5v0.7h-1.5v1h-1.1v-1h-0.6v-0.7h0.6v-0.6h-0.6v-0.7h0.6v-3.1h1.6c1.5,0,2.4,0.6,2.4,1.9
					c0,1.4-1,1.9-2.4,1.9h-0.5V31.2z M33.3,27.6v2.3h0.4c0.8,0,1.3-0.3,1.3-1.2c0-0.8-0.5-1.1-1.3-1.1H33.3z"/>
			</g>
		</g>
	</g>
</g>
</svg>
