<?xml version="1.0" encoding="utf-8"?>
<!-- Generator: Adobe Illustrator 18.1.1, SVG Export Plug-In . SVG Version: 6.00 Build 0)  -->
<svg version="1.1" id="Layer_1" xmlns="http://www.w3.org/2000/svg" xmlns:xlink="http://www.w3.org/1999/xlink" x="0px" y="0px"
	 viewBox="0 0 65.2 65.2" enable-background="new 0 0 65.2 65.2" xml:space="preserve">
<g>
	<g>
		<path fill="#FFC709" d="M32.7,64.4c-0.3,0-0.5-0.1-0.7-0.3L1.2,33.4c-0.2-0.2-0.3-0.5-0.3-0.7c0-0.3,0.1-0.5,0.3-0.7L31.9,1.2
			c0.4-0.4,1.1-0.4,1.5,0l30.7,30.7c0.2,0.2,0.3,0.5,0.3,0.7c0,0.3-0.1,0.5-0.3,0.7L33.4,64.1C33.2,64.3,32.9,64.4,32.7,64.4z"/>
		<linearGradient id="SVGID_1_" gradientUnits="userSpaceOnUse" x1="16.277" y1="16.2699" x2="49.0537" y2="49.0467">
			<stop  offset="0" style="stop-color:#FDB913"/>
			<stop  offset="1" style="stop-color:#D68119"/>
		</linearGradient>
		<path fill="url(#SVGID_1_)" d="M64.4,31.6L33.7,0.9c-0.6-0.6-1.5-0.6-2.1,0L0.9,31.6c-0.3,0.3-0.4,0.6-0.4,1c0,0.4,0.2,0.8,0.4,1
			l30.7,30.7c0.3,0.3,0.6,0.4,1,0.4c0.4,0,0.8-0.2,1-0.4l30.7-30.7c0.3-0.3,0.4-0.6,0.4-1C64.8,32.3,64.7,31.9,64.4,31.6z
			 M64.1,33.4L33.4,64.1c-0.2,0.2-0.5,0.3-0.7,0.3c-0.3,0-0.5-0.1-0.7-0.3L1.2,33.4c-0.2-0.2-0.3-0.5-0.3-0.7c0-0.3,0.1-0.5,0.3-0.7
			L31.9,1.2c0.4-0.4,1.1-0.4,1.5,0l30.7,30.7c0.2,0.2,0.3,0.5,0.3,0.7C64.4,32.9,64.3,33.2,64.1,33.4z"/>
		<path opacity="0.1" d="M33.1,61.3c-0.2,0-0.3-0.1-0.4-0.2L5.1,33.5c-0.1-0.1-0.2-0.3-0.2-0.4c0-0.2,0.1-0.3,0.2-0.4L32.6,5
			c0.2-0.2,0.7-0.2,0.9,0l27.6,27.6c0.1,0.1,0.2,0.3,0.2,0.4c0,0.2-0.1,0.3-0.2,0.4L33.5,61.1C33.4,61.2,33.2,61.3,33.1,61.3z
			 M6.4,33.1l26.7,26.7l26.7-26.7L33.1,6.4L6.4,33.1z"/>
		<path d="M32.7,60.9c-0.2,0-0.3-0.1-0.4-0.2L4.6,33.1c-0.1-0.1-0.2-0.3-0.2-0.4c0-0.2,0.1-0.3,0.2-0.4L32.2,4.6
			c0.2-0.2,0.7-0.2,0.9,0l27.6,27.6c0.1,0.1,0.2,0.3,0.2,0.4c0,0.2-0.1,0.3-0.2,0.4L33.1,60.7C33,60.8,32.8,60.9,32.7,60.9z M6,32.7
			l26.7,26.7l26.7-26.7L32.7,6L6,32.7z"/>
	</g>
	<g>
		<path fill="#48505A" d="M32.7,18.7c-4.3,0-7.8,3.5-7.8,7.8c0,6,7.2,14.9,7.5,15.2c0.1,0.1,0.2,0.2,0.4,0.2s0.3-0.1,0.4-0.2
			c0.3-0.4,7.5-9.3,7.5-15.2C40.5,22.2,37,18.7,32.7,18.7z M32.7,40.7c-1.5-1.9-6.9-9.3-6.9-14.2c0-3.8,3.1-6.9,6.9-6.9
			s6.9,3.1,6.9,6.9C39.6,31.4,34.1,38.8,32.7,40.7z"/>
		<path fill="#48505A" d="M34.9,39.2c-0.3,0.4-0.6,0.8-0.8,1.1c2.2,0.2,3.3,0.8,3.4,1.1c-0.1,0.3-1.8,1.1-4.9,1.1
			c-3.2,0-4.8-0.8-4.9-1.1c0.1-0.3,1.2-0.9,3.4-1.1c-0.2-0.3-0.5-0.7-0.8-1.1c-2.1,0.3-3.9,1-3.9,2.2c0,1.6,3.2,2.3,6.1,2.3
			c2.9,0,6.1-0.7,6.1-2.3C38.8,40.2,37,39.5,34.9,39.2z"/>
		<path fill="#48505A" d="M32.7,20.5c-3.4,0-6.1,2.7-6.1,6.1c0,3.4,2.7,6.1,6.1,6.1c3.4,0,6.1-2.7,6.1-6.1
			C38.8,23.2,36,20.5,32.7,20.5z M32.7,31.7c-2.9,0-5.2-2.3-5.2-5.2s2.3-5.2,5.2-5.2s5.2,2.3,5.2,5.2S35.5,31.7,32.7,31.7z"/>
		<path fill="#48505A" d="M30.2,28c-0.3,0-0.6,0.3-0.6,0.6v1.1c0,0.3,0.3,0.6,0.6,0.6c0.3,0,0.6-0.3,0.6-0.6v-1.1
			C30.8,28.2,30.6,28,30.2,28z"/>
		<path fill="#48505A" d="M35.1,28c-0.3,0-0.6,0.3-0.6,0.6v1.1c0,0.3,0.3,0.6,0.6,0.6c0.3,0,0.6-0.3,0.6-0.6v-1.1
			C35.8,28.2,35.5,28,35.1,28z"/>
		<path fill="#48505A" d="M35.8,25.2l-1.3-2.1c-0.1-0.1-0.2-0.2-0.4-0.2h-2.8c-0.2,0-0.3,0.1-0.4,0.2l-1.3,2.1
			c-0.6,0.2-1.1,0.8-1.1,1.6v0.4c0,0.9,0.7,1.7,1.7,1.7h5.1c0.9,0,1.7-0.7,1.7-1.7v-0.4C36.9,26,36.5,25.4,35.8,25.2z M31.5,23.8
			h2.3l0.8,1.3h-4L31.5,23.8z M36,27.2c0,0.4-0.3,0.7-0.7,0.7h-5.1c-0.4,0-0.7-0.3-0.7-0.7v-0.4c0-0.4,0.3-0.7,0.7-0.7h5.1
			c0.4,0,0.7,0.3,0.7,0.7V27.2z"/>
		<circle fill="#48505A" cx="30.7" cy="26.9" r="0.5"/>
		<circle fill="#48505A" cx="34.6" cy="26.9" r="0.5"/>
	</g>
</g>
</svg>
