<?xml version="1.0" encoding="utf-8"?>
<!-- Generator: Adobe Illustrator 18.1.1, SVG Export Plug-In . SVG Version: 6.00 Build 0)  -->
<svg version="1.1" id="Layer_1" xmlns="http://www.w3.org/2000/svg" xmlns:xlink="http://www.w3.org/1999/xlink" x="0px" y="0px"
	 viewBox="0 0 65.2 65.2" enable-background="new 0 0 65.2 65.2" xml:space="preserve">
<g>
	<path fill="#FFC709" d="M32.9,64.4c-0.3,0-0.5-0.1-0.7-0.3L1.4,33.4c-0.2-0.2-0.3-0.5-0.3-0.7s0.1-0.5,0.3-0.7L32.1,1.2
		c0.4-0.4,1.1-0.4,1.5,0l30.7,30.7c0.2,0.2,0.3,0.5,0.3,0.7s-0.1,0.5-0.3,0.7L33.6,64.1C33.4,64.3,33.1,64.4,32.9,64.4z"/>
	<linearGradient id="SVGID_1_" gradientUnits="userSpaceOnUse" x1="16.4797" y1="16.2701" x2="49.2558" y2="49.0461">
		<stop  offset="0" style="stop-color:#FDB913"/>
		<stop  offset="1" style="stop-color:#D68119"/>
	</linearGradient>
	<path fill="url(#SVGID_1_)" d="M64.6,31.6L33.9,0.9c-0.6-0.6-1.5-0.6-2.1,0L1.1,31.6c-0.3,0.3-0.4,0.6-0.4,1c0,0.4,0.2,0.8,0.4,1
		l30.7,30.7c0.3,0.3,0.6,0.4,1,0.4c0.4,0,0.8-0.2,1-0.4l30.7-30.7c0.3-0.3,0.4-0.6,0.4-1C65,32.3,64.9,31.9,64.6,31.6z M64.3,33.4
		L33.6,64.1c-0.2,0.2-0.5,0.3-0.7,0.3c-0.3,0-0.5-0.1-0.7-0.3L1.4,33.4c-0.2-0.2-0.3-0.5-0.3-0.7s0.1-0.5,0.3-0.7L32.1,1.2
		c0.4-0.4,1.1-0.4,1.5,0l30.7,30.7c0.2,0.2,0.3,0.5,0.3,0.7S64.5,33.2,64.3,33.4z"/>
	<path opacity="0.1" d="M33.3,61.3c-0.2,0-0.3-0.1-0.4-0.2L5.3,33.5c-0.1-0.1-0.2-0.3-0.2-0.4c0-0.2,0.1-0.3,0.2-0.4L32.8,5
		c0.2-0.2,0.7-0.2,0.9,0l27.6,27.6c0.1,0.1,0.2,0.3,0.2,0.4c0,0.2-0.1,0.3-0.2,0.4L33.7,61.1C33.6,61.2,33.4,61.3,33.3,61.3z
		 M6.6,33.1l26.7,26.7L60,33.1L33.3,6.4L6.6,33.1z"/>
	<path d="M32.9,60.9c-0.2,0-0.3-0.1-0.4-0.2L4.8,33.1c-0.1-0.1-0.2-0.3-0.2-0.4c0-0.2,0.1-0.3,0.2-0.4L32.4,4.6
		c0.2-0.2,0.7-0.2,0.9,0l27.6,27.6c0.1,0.1,0.2,0.3,0.2,0.4c0,0.2-0.1,0.3-0.2,0.4L33.3,60.7C33.2,60.8,33,60.9,32.9,60.9z
		 M6.2,32.7l26.7,26.7l26.7-26.7L32.9,6L6.2,32.7z"/>
</g>
<g>
	<path fill="#48505A" d="M43.4,31.9H28.9v-7.4c0-0.3-0.2-0.5-0.5-0.5h-5.1c-0.1,0-0.3,0.1-0.4,0.2l-1.3,1.6L18,30.7c0,0,0,0,0,0
		c0,0,0,0.1-0.1,0.1c0,0,0,0,0,0c0,0,0,0.1,0,0.1c0,0,0,0,0,0c0,0,0,0,0,0v6.5c0,0.3,0.2,0.5,0.5,0.5h1.9c0,0.1,0,0.2,0,0.3
		c0,1.7,1.4,3.1,3.1,3.1s3.1-1.4,3.1-3.1c0-0.1,0-0.2,0-0.3h1.9h7c0,0.1,0,0.2,0,0.3c0,1.7,1.4,3.1,3.1,3.1c1.7,0,3.1-1.4,3.1-3.1
		c0-0.1,0-0.2,0-0.3h1.7c0.3,0,0.5-0.2,0.5-0.5v-5.2C43.9,32.1,43.7,31.9,43.4,31.9z M22.4,26.6h1.8v3.9h-4.9L22.4,26.6z M23.4,40.4
		c-1.2,0-2.2-1-2.2-2.2c0-1.2,1-2.2,2.2-2.2c1.2,0,2.2,1,2.2,2.2C25.7,39.4,24.7,40.4,23.4,40.4z M28,32.3V37h-1.7
		c-0.5-1.2-1.6-2-2.9-2s-2.4,0.8-2.9,2h-1.7v-5.6h5.8c0.3,0,0.5-0.2,0.5-0.5v-4.8c0-0.3-0.2-0.5-0.5-0.5h-1.6l0.6-0.7H28V32.3z
		 M38.6,40.4c-1.2,0-2.2-1-2.2-2.2c0-1.2,1-2.2,2.2-2.2c1.2,0,2.2,1,2.2,2.2C40.8,39.4,39.8,40.4,38.6,40.4z M43,37h-1.5
		c-0.5-1.2-1.6-2-2.9-2c-1.3,0-2.4,0.8-2.9,2h-6.7v-4.2h14V37z"/>
	<path fill="#48505A" d="M44.9,21.3C44.9,21.3,44.9,21.3,44.9,21.3c0-0.1-0.1-0.1-0.1-0.1c-1-1.6-2.7-2.6-4.7-2.6
		c-2.6,0-4.7,1.7-5.4,4.1h-4.7c-0.3,0-0.5,0.2-0.5,0.5v1.8c0,0.3,0.2,0.5,0.5,0.5h0.2v5.3c0,0.3,0.2,0.5,0.5,0.5h10.7
		c0.3,0,0.5-0.2,0.5-0.5v-1.3c2.2-0.7,3.8-2.8,3.8-5.3C45.7,23.1,45.4,22.2,44.9,21.3z M40.1,19.5c1.5,0,2.9,0.7,3.7,1.9l-1.2,0.8
		c-0.2-1-1.1-1.4-2.4-1.4h-1.6v3.1H38v0.7h0.6v0L36,26.2c-0.3-0.6-0.5-1.3-0.5-2C35.5,21.6,37.6,19.5,40.1,19.5z M39.9,23.7h-0.1
		v-2.3h0.4c0.8,0,1.3,0.3,1.3,1.1c0,0.1,0,0.2,0,0.2L39.9,23.7z M30.5,24.5v-0.9h4.1c0,0.2,0,0.4,0,0.6c0,0.1,0,0.3,0,0.4
		c0,0,0-0.1,0-0.1H30.5z M41,30.3h-9.8v-4.7h3.5c0,0,0-0.1,0-0.1c0.1,0.5,0.3,1.1,0.6,1.5c0,0,0,0,0,0.1c0,0,0,0,0,0
		c1,1.6,2.7,2.6,4.7,2.6c0.3,0,0.6,0,0.9-0.1V30.3z M40.1,28.8c-1.5,0-2.9-0.7-3.7-1.9l2-1.2h0.2v1h1.1v-1h1.5v-0.7h-1.5v-0.2
		l0.7-0.4c1,0,1.8-0.4,2.1-1.3l1.8-1.1c0.3,0.6,0.5,1.3,0.5,2C44.8,26.7,42.7,28.8,40.1,28.8z"/>
</g>
</svg>
