<?xml version="1.0" encoding="utf-8"?>
<!-- Generator: Adobe Illustrator 18.1.1, SVG Export Plug-In . SVG Version: 6.00 Build 0)  -->
<svg version="1.1" id="Layer_1" xmlns="http://www.w3.org/2000/svg" xmlns:xlink="http://www.w3.org/1999/xlink" x="0px" y="0px"
	 viewBox="0 0 65.2 65.2" enable-background="new 0 0 65.2 65.2" xml:space="preserve">
<g>
	<g>
		<path fill="#FFC709" d="M32.7,64.6c-0.3,0-0.5-0.1-0.7-0.3L1.2,33.6c-0.2-0.2-0.3-0.5-0.3-0.7c0-0.3,0.1-0.5,0.3-0.7L31.9,1.4
			C32.3,1,33,1,33.4,1.4l30.7,30.7c0.2,0.2,0.3,0.5,0.3,0.7c0,0.3-0.1,0.5-0.3,0.7L33.4,64.3C33.2,64.5,32.9,64.6,32.7,64.6z"/>
		<linearGradient id="SVGID_1_" gradientUnits="userSpaceOnUse" x1="16.277" y1="16.4445" x2="49.0537" y2="49.2213">
			<stop  offset="0" style="stop-color:#FDB913"/>
			<stop  offset="1" style="stop-color:#D68119"/>
		</linearGradient>
		<path fill="url(#SVGID_1_)" d="M64.4,31.8L33.7,1.1c-0.6-0.6-1.5-0.6-2.1,0L0.9,31.8c-0.3,0.3-0.4,0.6-0.4,1c0,0.4,0.2,0.8,0.4,1
			l30.7,30.7c0.3,0.3,0.6,0.4,1,0.4c0.4,0,0.8-0.2,1-0.4l30.7-30.7c0.3-0.3,0.4-0.6,0.4-1C64.8,32.4,64.7,32.1,64.4,31.8z
			 M64.1,33.6L33.4,64.3c-0.2,0.2-0.5,0.3-0.7,0.3c-0.3,0-0.5-0.1-0.7-0.3L1.2,33.6c-0.2-0.2-0.3-0.5-0.3-0.7c0-0.3,0.1-0.5,0.3-0.7
			L31.9,1.4C32.3,1,33,1,33.4,1.4l30.7,30.7c0.2,0.2,0.3,0.5,0.3,0.7C64.4,33.1,64.3,33.4,64.1,33.6z"/>
		<path opacity="0.1" d="M33.1,61.5c-0.2,0-0.3-0.1-0.4-0.2L5.1,33.7c-0.1-0.1-0.2-0.3-0.2-0.4c0-0.2,0.1-0.3,0.2-0.4L32.6,5.2
			c0.2-0.2,0.7-0.2,0.9,0l27.6,27.6c0.1,0.1,0.2,0.3,0.2,0.4c0,0.2-0.1,0.3-0.2,0.4L33.5,61.3C33.4,61.4,33.2,61.5,33.1,61.5z
			 M6.4,33.3l26.7,26.7l26.7-26.7L33.1,6.6L6.4,33.3z"/>
		<path d="M32.7,61c-0.2,0-0.3-0.1-0.4-0.2L4.6,33.3c-0.1-0.1-0.2-0.3-0.2-0.4c0-0.2,0.1-0.3,0.2-0.4L32.2,4.8
			c0.2-0.2,0.7-0.2,0.9,0l27.6,27.6c0.1,0.1,0.2,0.3,0.2,0.4c0,0.2-0.1,0.3-0.2,0.4L33.1,60.9C33,61,32.8,61,32.7,61z M6,32.8
			l26.7,26.7l26.7-26.7L32.7,6.1L6,32.8z"/>
	</g>
	<g>
		<path fill="#48505A" d="M24.2,37.4c-0.9,0-3.7,0-3.7-2.6c0-2,1.6-4.2,3.7-4.2c2.1,0,3.7,2.3,3.7,4.2
			C27.9,37.4,25.1,37.4,24.2,37.4z M24.2,31.5c-1.5,0-2.8,1.8-2.8,3.3c0,0.9,0.3,1.7,2.8,1.7c2.5,0,2.8-0.8,2.8-1.7
			C27,33.3,25.7,31.5,24.2,31.5z"/>
		<path fill="#48505A" d="M24.2,31.4c-1.3,0-2.5-1.3-2.5-2.9c0-1.5,1.1-2.6,2.5-2.6c1.4,0,2.5,1.2,2.5,2.6
			C26.6,30.1,25.5,31.4,24.2,31.4z M24.2,26.9c-0.8,0-1.5,0.8-1.5,1.7c0,1,0.7,1.9,1.5,1.9c0.8,0,1.5-0.9,1.5-1.9
			C25.7,27.6,25,26.9,24.2,26.9z"/>
		<path fill="#48505A" d="M40.8,29h-8.5c-0.3,0-0.5-0.2-0.5-0.5c0-0.3,0.2-0.5,0.5-0.5h8.5c0.3,0,0.5,0.2,0.5,0.5
			C41.2,28.8,41,29,40.8,29z"/>
		<path fill="#48505A" d="M40.8,32.2h-8.5c-0.3,0-0.5-0.2-0.5-0.5c0-0.3,0.2-0.5,0.5-0.5h8.5c0.3,0,0.5,0.2,0.5,0.5
			C41.2,31.9,41,32.2,40.8,32.2z"/>
		<path fill="#48505A" d="M38.6,35.3h-6.4c-0.3,0-0.5-0.2-0.5-0.5c0-0.3,0.2-0.5,0.5-0.5h6.4c0.3,0,0.5,0.2,0.5,0.5
			C39.1,35.1,38.9,35.3,38.6,35.3z"/>
		<path fill="#48505A" d="M45.2,29.3c-0.4,0-0.9,0.1-1.2,0.3v-3.8c0-0.9-0.7-1.6-1.6-1.6h-23c-0.9,0-1.6,0.7-1.6,1.6v11.8
			c0,0.9,0.7,1.6,1.6,1.6h23c0.9,0,1.6-0.7,1.6-1.6v-3.8c0.4,0.2,0.8,0.3,1.2,0.3c1.3,0,2.4-1.1,2.4-2.4
			C47.7,30.4,46.6,29.3,45.2,29.3z M19.1,37.6V25.8c0-0.2,0.2-0.4,0.4-0.4h9.9V38h-9.9C19.2,38,19.1,37.8,19.1,37.6z M42.8,37.6
			c0,0.2-0.2,0.4-0.4,0.4H30.2V25.4h12.2c0.2,0,0.4,0.2,0.4,0.4V37.6z M45.2,32.9c-0.7,0-1.2-0.5-1.2-1.2c0-0.7,0.5-1.2,1.2-1.2
			c0.7,0,1.2,0.5,1.2,1.2C46.4,32.4,45.9,32.9,45.2,32.9z"/>
	</g>
</g>
</svg>
