<?xml version="1.0" encoding="utf-8"?>
<!-- Generator: Adobe Illustrator 18.1.1, SVG Export Plug-In . SVG Version: 6.00 Build 0)  -->
<svg version="1.1" id="Layer_1" xmlns="http://www.w3.org/2000/svg" xmlns:xlink="http://www.w3.org/1999/xlink" x="0px" y="0px"
	 viewBox="0 0 65.2 65.2" enable-background="new 0 0 65.2 65.2" xml:space="preserve">
<g>
	<g>
		<path fill="#FFC709" d="M32.8,64.4c-0.3,0-0.5-0.1-0.7-0.3L1.3,33.4C1.1,33.2,1,32.9,1,32.7c0-0.3,0.1-0.5,0.3-0.7L32,1.2
			c0.4-0.4,1.1-0.4,1.5,0l30.7,30.7c0.2,0.2,0.3,0.5,0.3,0.7c0,0.3-0.1,0.5-0.3,0.7L33.5,64.1C33.3,64.3,33,64.4,32.8,64.4z"/>
		<linearGradient id="SVGID_1_" gradientUnits="userSpaceOnUse" x1="16.3773" y1="16.2699" x2="49.1542" y2="49.0468">
			<stop  offset="0" style="stop-color:#FDB913"/>
			<stop  offset="1" style="stop-color:#D68119"/>
		</linearGradient>
		<path fill="url(#SVGID_1_)" d="M64.5,31.6L33.8,0.9c-0.6-0.6-1.5-0.6-2.1,0L1,31.6c-0.3,0.3-0.4,0.6-0.4,1c0,0.4,0.2,0.8,0.4,1
			l30.7,30.7c0.3,0.3,0.6,0.4,1,0.4c0.4,0,0.8-0.2,1-0.4l30.7-30.7c0.3-0.3,0.4-0.6,0.4-1C64.9,32.3,64.8,31.9,64.5,31.6z
			 M64.2,33.4L33.5,64.1c-0.2,0.2-0.5,0.3-0.7,0.3c-0.3,0-0.5-0.1-0.7-0.3L1.3,33.4C1.1,33.2,1,32.9,1,32.7c0-0.3,0.1-0.5,0.3-0.7
			L32,1.2c0.4-0.4,1.1-0.4,1.5,0l30.7,30.7c0.2,0.2,0.3,0.5,0.3,0.7C64.5,32.9,64.4,33.2,64.2,33.4z"/>
		<path opacity="0.1" d="M33.2,61.3c-0.2,0-0.3-0.1-0.4-0.2L5.2,33.5C5,33.4,5,33.2,5,33.1c0-0.2,0.1-0.3,0.2-0.4L32.7,5
			c0.2-0.2,0.7-0.2,0.9,0l27.6,27.6c0.1,0.1,0.2,0.3,0.2,0.4c0,0.2-0.1,0.3-0.2,0.4L33.6,61.1C33.5,61.2,33.3,61.3,33.2,61.3z
			 M6.5,33.1l26.7,26.7l26.7-26.7L33.2,6.4L6.5,33.1z"/>
		<path d="M32.8,60.9c-0.2,0-0.3-0.1-0.4-0.2L4.7,33.1c-0.1-0.1-0.2-0.3-0.2-0.4c0-0.2,0.1-0.3,0.2-0.4L32.3,4.6
			c0.2-0.2,0.7-0.2,0.9,0l27.6,27.6c0.1,0.1,0.2,0.3,0.2,0.4c0,0.2-0.1,0.3-0.2,0.4L33.2,60.7C33.1,60.8,32.9,60.9,32.8,60.9z
			 M6.1,32.7l26.7,26.7l26.7-26.7L32.8,6L6.1,32.7z"/>
	</g>
	<g>
		<path fill="#48505A" d="M25.5,28.7c-0.9,0-1.6,0.7-1.6,1.6c0,0.9,0.7,1.6,1.6,1.6c0.9,0,1.6-0.7,1.6-1.6
			C27.1,29.5,26.3,28.7,25.5,28.7z M25.5,31c-0.4,0-0.7-0.3-0.7-0.7c0-0.4,0.3-0.7,0.7-0.7c0.4,0,0.7,0.3,0.7,0.7
			C26.1,30.7,25.8,31,25.5,31z"/>
		<path fill="#48505A" d="M30,28.7c-0.9,0-1.6,0.7-1.6,1.6c0,0.9,0.7,1.6,1.6,1.6c0.9,0,1.6-0.7,1.6-1.6
			C31.6,29.5,30.9,28.7,30,28.7z M30,31c-0.4,0-0.7-0.3-0.7-0.7c0-0.4,0.3-0.7,0.7-0.7c0.4,0,0.7,0.3,0.7,0.7
			C30.7,30.7,30.4,31,30,31z"/>
		<path fill="#48505A" d="M34.5,28.7c-0.9,0-1.6,0.7-1.6,1.6c0,0.9,0.7,1.6,1.6,1.6c0.9,0,1.6-0.7,1.6-1.6
			C36.1,29.5,35.4,28.7,34.5,28.7z M34.5,31c-0.4,0-0.7-0.3-0.7-0.7c0-0.4,0.3-0.7,0.7-0.7c0.4,0,0.7,0.3,0.7,0.7
			C35.2,30.7,34.9,31,34.5,31z"/>
		<path fill="#48505A" d="M39,31.9c0.9,0,1.6-0.7,1.6-1.6c0-0.9-0.7-1.6-1.6-1.6c-0.9,0-1.6,0.7-1.6,1.6
			C37.5,31.2,38.2,31.9,39,31.9z M39,29.7c0.4,0,0.7,0.3,0.7,0.7c0,0.4-0.3,0.7-0.7,0.7c-0.4,0-0.7-0.3-0.7-0.7
			C38.4,30,38.7,29.7,39,29.7z"/>
		<path fill="#48505A" d="M25.5,33.1c-0.9,0-1.6,0.7-1.6,1.6c0,0.9,0.7,1.6,1.6,1.6c0.9,0,1.6-0.7,1.6-1.6
			C27.1,33.8,26.3,33.1,25.5,33.1z M25.5,35.3c-0.4,0-0.7-0.3-0.7-0.7c0-0.4,0.3-0.7,0.7-0.7c0.4,0,0.7,0.3,0.7,0.7
			C26.1,35,25.8,35.3,25.5,35.3z"/>
		<path fill="#48505A" d="M30,33.1c-0.9,0-1.6,0.7-1.6,1.6c0,0.9,0.7,1.6,1.6,1.6c0.9,0,1.6-0.7,1.6-1.6
			C31.6,33.8,30.9,33.1,30,33.1z M30,35.3c-0.4,0-0.7-0.3-0.7-0.7c0-0.4,0.3-0.7,0.7-0.7c0.4,0,0.7,0.3,0.7,0.7
			C30.7,35,30.4,35.3,30,35.3z"/>
		<path fill="#48505A" d="M34.5,33.1c-0.9,0-1.6,0.7-1.6,1.6c0,0.9,0.7,1.6,1.6,1.6c0.9,0,1.6-0.7,1.6-1.6
			C36.1,33.8,35.4,33.1,34.5,33.1z M34.5,35.3c-0.4,0-0.7-0.3-0.7-0.7c0-0.4,0.3-0.7,0.7-0.7c0.4,0,0.7,0.3,0.7,0.7
			C35.2,35,34.9,35.3,34.5,35.3z"/>
		<path fill="#48505A" d="M37.9,35.1c0.3,0,0.5-0.2,0.5-0.5c0-0.4,0.3-0.7,0.7-0.7c0.4,0,0.7,0.3,0.7,0.7c0,0.3,0.2,0.5,0.5,0.5
			c0.3,0,0.5-0.2,0.5-0.5c0-0.9-0.7-1.6-1.6-1.6c-0.9,0-1.6,0.7-1.6,1.6C37.5,34.9,37.7,35.1,37.9,35.1z"/>
		<path fill="#48505A" d="M25.5,37.4c-0.9,0-1.6,0.7-1.6,1.6c0,0.9,0.7,1.6,1.6,1.6c0.9,0,1.6-0.7,1.6-1.6
			C27.1,38.1,26.3,37.4,25.5,37.4z M25.5,39.7c-0.4,0-0.7-0.3-0.7-0.7c0-0.4,0.3-0.7,0.7-0.7c0.4,0,0.7,0.3,0.7,0.7
			C26.1,39.4,25.8,39.7,25.5,39.7z"/>
		<path fill="#48505A" d="M30,37.4c-0.9,0-1.6,0.7-1.6,1.6c0,0.9,0.7,1.6,1.6,1.6c0.9,0,1.6-0.7,1.6-1.6
			C31.6,38.1,30.9,37.4,30,37.4z M30,39.7c-0.4,0-0.7-0.3-0.7-0.7c0-0.4,0.3-0.7,0.7-0.7c0.4,0,0.7,0.3,0.7,0.7
			C30.7,39.4,30.4,39.7,30,39.7z"/>
		<path fill="#48505A" d="M34.5,38.3c0.3,0,0.5-0.2,0.5-0.5c0-0.3-0.2-0.5-0.5-0.5c-0.9,0-1.6,0.7-1.6,1.6c0,0.9,0.7,1.6,1.6,1.6
			c0.3,0,0.5-0.2,0.5-0.5c0-0.3-0.2-0.5-0.5-0.5c-0.4,0-0.7-0.3-0.7-0.7C33.9,38.6,34.2,38.3,34.5,38.3z"/>
		<path fill="#48505A" d="M42.6,36.5v-8.2c0-0.2,0-0.4-0.1-0.6h0.3c0.8,0,1.5-0.7,1.5-1.5v-2.5c0-0.8-0.7-1.5-1.5-1.5h-1.6V21
			c0-0.7-0.6-1.3-1.3-1.3c-0.7,0-1.3,0.6-1.3,1.3v1.2h-5V21c0-0.7-0.6-1.3-1.3-1.3c-0.7,0-1.3,0.6-1.3,1.3v1.2H26V21
			c0-0.7-0.6-1.3-1.3-1.3c-0.7,0-1.3,0.6-1.3,1.3v1.2h-1.6c-0.8,0-1.5,0.7-1.5,1.5v2.5c0,0.8,0.7,1.5,1.5,1.5h0.3
			c-0.1,0.2-0.1,0.4-0.1,0.6V41c0,0.8,0.7,1.5,1.5,1.5h12.8c0.7,1.6,2.3,2.6,4.2,2.6c2.5,0,4.6-2.1,4.6-4.6
			C45,38.8,44,37.3,42.6,36.5z M39.4,23.1v-0.9V21c0-0.2,0.2-0.4,0.4-0.4c0.2,0,0.4,0.2,0.4,0.4v1.2v0.9v1.2c0,0.2-0.2,0.4-0.4,0.4
			c-0.2,0-0.4-0.2-0.4-0.4V23.1z M31.8,23.1v-0.9V21c0-0.2,0.2-0.4,0.4-0.4c0.2,0,0.4,0.2,0.4,0.4v1.2v0.9v1.2
			c0,0.2-0.2,0.4-0.4,0.4c-0.2,0-0.4-0.2-0.4-0.4V23.1z M24.3,23.1v-0.9V21c0-0.2,0.2-0.4,0.4-0.4c0.2,0,0.4,0.2,0.4,0.4v1.2v0.9
			v1.2c0,0.2-0.2,0.4-0.4,0.4c-0.2,0-0.4-0.2-0.4-0.4V23.1z M21.7,26.8c-0.3,0-0.6-0.3-0.6-0.6v-2.5c0-0.3,0.3-0.6,0.6-0.6h1.6v1.2
			c0,0.7,0.6,1.3,1.3,1.3c0.7,0,1.3-0.6,1.3-1.3v-1.2h4.9v1.2c0,0.7,0.6,1.3,1.3,1.3c0.7,0,1.3-0.6,1.3-1.3v-1.2h5v1.2
			c0,0.7,0.6,1.3,1.3,1.3c0.7,0,1.3-0.6,1.3-1.3v-1.2h1.6c0.3,0,0.6,0.3,0.6,0.6v2.5c0,0.3-0.3,0.6-0.6,0.6h-1.7H23.5H21.7z
			 M35.9,41.6H23.5c-0.3,0-0.6-0.3-0.6-0.6V28.3c0-0.3,0.3-0.6,0.6-0.6h17.6c0.3,0,0.6,0.3,0.6,0.6v7.8c-0.4-0.1-0.8-0.2-1.3-0.2
			c-2.5,0-4.6,2.1-4.6,4.6C35.8,40.9,35.8,41.3,35.9,41.6z M40.4,44.2c-2,0-3.7-1.7-3.7-3.7c0-2,1.7-3.7,3.7-3.7
			c2,0,3.7,1.7,3.7,3.7C44.1,42.6,42.4,44.2,40.4,44.2z"/>
		<path fill="#48505A" d="M42.1,38.3c-0.2-0.1-0.5,0-0.6,0.2L40,41.2l-0.7-0.9c-0.2-0.2-0.4-0.2-0.6-0.1c-0.2,0.2-0.2,0.4-0.1,0.6
			l1.2,1.5c0,0,0,0,0,0c0,0,0,0.1,0.1,0.1c0,0,0,0,0,0c0,0,0,0,0.1,0c0,0,0,0,0,0c0,0,0,0,0.1,0c0,0,0,0,0,0c0,0,0,0,0.1,0
			c0,0,0,0,0,0c0,0,0.1,0,0.1,0c0,0,0,0,0,0c0,0,0.1,0,0.1,0c0,0,0,0,0,0c0,0,0,0,0,0c0,0,0,0,0,0c0,0,0-0.1,0.1-0.1c0,0,0,0,0,0
			l1.7-3.3C42.4,38.7,42.3,38.5,42.1,38.3z"/>
	</g>
</g>
</svg>
