<?xml version="1.0" encoding="utf-8"?>
<!-- Generator: Adobe Illustrator 18.1.1, SVG Export Plug-In . SVG Version: 6.00 Build 0)  -->
<svg version="1.1" id="Layer_1" xmlns="http://www.w3.org/2000/svg" xmlns:xlink="http://www.w3.org/1999/xlink" x="0px" y="0px"
	 viewBox="0 0 65.2 65.2" enable-background="new 0 0 65.2 65.2" xml:space="preserve">
<g>
	<g>
		<path fill="#FFC709" d="M32.9,64.6c-0.3,0-0.5-0.1-0.7-0.3L1.4,33.6c-0.2-0.2-0.3-0.5-0.3-0.7c0-0.3,0.1-0.5,0.3-0.7L32.1,1.4
			c0.4-0.4,1.1-0.4,1.5,0l30.7,30.7c0.2,0.2,0.3,0.5,0.3,0.7c0,0.3-0.1,0.5-0.3,0.7L33.6,64.3C33.4,64.5,33.1,64.6,32.9,64.6z"/>
		<linearGradient id="SVGID_1_" gradientUnits="userSpaceOnUse" x1="16.4807" y1="16.4447" x2="49.2575" y2="49.2214">
			<stop  offset="0" style="stop-color:#FDB913"/>
			<stop  offset="1" style="stop-color:#D68119"/>
		</linearGradient>
		<path fill="url(#SVGID_1_)" d="M64.6,31.8L33.9,1.1c-0.6-0.6-1.5-0.6-2.1,0L1.1,31.8c-0.3,0.3-0.4,0.6-0.4,1c0,0.4,0.2,0.8,0.4,1
			l30.7,30.7c0.3,0.3,0.6,0.4,1,0.4c0.4,0,0.8-0.2,1-0.4l30.7-30.7c0.3-0.3,0.4-0.6,0.4-1C65,32.4,64.9,32.1,64.6,31.8z M64.3,33.6
			L33.6,64.3c-0.2,0.2-0.5,0.3-0.7,0.3c-0.3,0-0.5-0.1-0.7-0.3L1.4,33.6c-0.2-0.2-0.3-0.5-0.3-0.7c0-0.3,0.1-0.5,0.3-0.7L32.1,1.4
			c0.4-0.4,1.1-0.4,1.5,0l30.7,30.7c0.2,0.2,0.3,0.5,0.3,0.7C64.6,33.1,64.5,33.4,64.3,33.6z"/>
		<path opacity="0.1" d="M33.3,61.5c-0.2,0-0.3-0.1-0.4-0.2L5.3,33.7c-0.1-0.1-0.2-0.3-0.2-0.4c0-0.2,0.1-0.3,0.2-0.4L32.8,5.2
			c0.2-0.2,0.7-0.2,0.9,0l27.6,27.6c0.1,0.1,0.2,0.3,0.2,0.4c0,0.2-0.1,0.3-0.2,0.4L33.7,61.3C33.6,61.4,33.4,61.5,33.3,61.5z
			 M6.6,33.3l26.7,26.7L60,33.3L33.3,6.6L6.6,33.3z"/>
		<path d="M32.9,61c-0.2,0-0.3-0.1-0.4-0.2L4.8,33.3c-0.1-0.1-0.2-0.3-0.2-0.4c0-0.2,0.1-0.3,0.2-0.4L32.4,4.8
			c0.2-0.2,0.7-0.2,0.9,0l27.6,27.6c0.1,0.1,0.2,0.3,0.2,0.4c0,0.2-0.1,0.3-0.2,0.4L33.3,60.9C33.2,61,33,61,32.9,61z M6.2,32.8
			l26.7,26.7l26.7-26.7L32.9,6.1L6.2,32.8z"/>
	</g>
	<g>
		<path fill="#48505A" d="M33.4,23c0,0,0.1,0,0.1,0l0.1,0c0.4-0.1,0.6-0.4,0.5-0.8c-0.1-0.4-0.4-0.6-0.8-0.6l0,0
			c-0.4,0.1-0.6,0.4-0.6,0.8C32.8,22.8,33.1,23,33.4,23z"/>
		<path fill="#48505A" d="M33.6,40.4c-0.4-0.1-0.7,0.2-0.8,0.5c-0.1,0.4,0.2,0.7,0.5,0.8l0.1,0c0,0,0.1,0,0.1,0
			c0.3,0,0.6-0.2,0.7-0.6C34.2,40.8,33.9,40.5,33.6,40.4z"/>
		<path fill="#48505A" d="M39.5,24.1c0.1,0.1,0.2,0.1,0.3,0.1c0.2,0,0.5-0.1,0.6-0.3c0.2-0.3,0.1-0.8-0.3-0.9l0,0
			c-0.3-0.2-0.7-0.1-0.9,0.3C39.1,23.4,39.2,23.9,39.5,24.1z"/>
		<path fill="#48505A" d="M44.1,29.1c0.1,0,0.2,0,0.2,0c0.4-0.1,0.6-0.5,0.4-0.9l0,0c-0.1-0.4-0.5-0.5-0.9-0.4
			c-0.4,0.1-0.5,0.5-0.4,0.9C43.5,29,43.8,29.1,44.1,29.1z"/>
		<path fill="#48505A" d="M36.6,23L36.6,23c0.1,0,0.1,0,0.1,0c0.3,0,0.6-0.2,0.7-0.6c0.1-0.4-0.2-0.7-0.6-0.8l0,0
			c-0.4-0.1-0.7,0.2-0.8,0.6C36,22.6,36.2,22.9,36.6,23z"/>
		<path fill="#48505A" d="M44.3,34.3c-0.4-0.1-0.8,0.1-0.9,0.4c0,0,0,0,0,0c-0.1,0.4,0.1,0.7,0.4,0.9c0.1,0,0.2,0,0.2,0
			c0.3,0,0.6-0.2,0.7-0.5l0,0C44.8,34.8,44.6,34.4,44.3,34.3z"/>
		<path fill="#48505A" d="M42.8,37.3c-0.3-0.2-0.7-0.2-1,0.1c-0.3,0.3-0.2,0.7,0.1,1c0.1,0.1,0.3,0.2,0.5,0.2c0.2,0,0.4-0.1,0.5-0.2
			l0,0C43.2,38,43.1,37.5,42.8,37.3z"/>
		<path fill="#48505A" d="M36.7,40.4L36.7,40.4c-0.4,0.1-0.7,0.4-0.6,0.8c0.1,0.3,0.4,0.6,0.7,0.6c0,0,0.1,0,0.1,0l0,0
			c0.4-0.1,0.6-0.4,0.6-0.8C37.4,40.6,37,40.3,36.7,40.4z"/>
		<path fill="#48505A" d="M44.6,31c-0.4,0-0.7,0.3-0.7,0.7v0c0,0,0,0,0,0v0c0,0.4,0.3,0.7,0.7,0.7c0.4,0,0.7-0.3,0.7-0.7v0
			c0,0,0,0,0,0v0C45.3,31.3,45,31,44.6,31z"/>
		<path fill="#48505A" d="M39.5,39.4L39.5,39.4c-0.4,0.2-0.5,0.6-0.3,1c0.1,0.2,0.4,0.3,0.6,0.3c0.1,0,0.2,0,0.4-0.1l0,0
			c0.3-0.2,0.4-0.6,0.3-0.9C40.3,39.3,39.8,39.2,39.5,39.4z"/>
		<path fill="#48505A" d="M41.9,26c0.1,0.2,0.3,0.2,0.5,0.2c0.2,0,0.3-0.1,0.5-0.2c0.3-0.2,0.3-0.7,0.1-1l0,0
			c-0.2-0.3-0.7-0.3-1-0.1C41.6,25.3,41.6,25.7,41.9,26L41.9,26z"/>
		<g>
			<g>
				<path fill="#48505A" d="M30.5,33.7h-1.6c0.6-0.9,1.1-1.4,1.3-1.7c0.4-0.6,0.6-1,0.6-1.5c0-0.4-0.1-0.8-0.4-1.1
					c-0.3-0.3-0.6-0.4-1-0.4c-0.4,0-0.7,0.2-1,0.5c-0.3,0.3-0.5,0.7-0.5,1.2c0,0.1,0,0.2,0.1,0.3c0.1,0.1,0.2,0.1,0.3,0.1
					c0.1,0,0.1,0,0.2-0.1c0.1-0.1,0.1-0.2,0.2-0.3c0.1-0.2,0.1-0.4,0.2-0.5c0.1-0.3,0.3-0.4,0.6-0.4c0.2,0,0.3,0.1,0.5,0.2
					c0.1,0.1,0.2,0.3,0.2,0.5c0,0.3-0.1,0.5-0.3,0.8c-0.2,0.4-0.5,0.8-0.8,1.2c-0.4,0.5-0.7,0.9-0.9,1.1c-0.1,0.1-0.1,0.2-0.1,0.3
					c0,0.2,0.1,0.3,0.4,0.3h2.3c0.2,0,0.3-0.1,0.3-0.3C30.9,33.8,30.7,33.7,30.5,33.7z"/>
			</g>
			<g>
				<path fill="#48505A" d="M34.2,32.4H34v-2.6c0-0.3-0.1-0.5-0.2-0.6c-0.1-0.2-0.3-0.2-0.5-0.2c-0.3,0-0.5,0.1-0.6,0.4l-1.5,3.2
					c0,0.1-0.1,0.2-0.1,0.3c0,0.1,0,0.2,0.1,0.2c0.1,0.1,0.1,0.1,0.2,0.1h1.8V34c0,0.3,0.1,0.4,0.3,0.4c0.2,0,0.3-0.1,0.3-0.4v-0.8
					h0.3c0.1,0,0.2,0,0.3-0.1c0.1-0.1,0.1-0.1,0.1-0.3c0-0.1,0-0.2-0.1-0.3C34.4,32.5,34.3,32.4,34.2,32.4z M33.3,32.4H32l1.2-2.5
					l0.1,0V32.4z"/>
			</g>
			<g>
				<path fill="#48505A" d="M37.2,29c-0.1,0-0.2,0.1-0.3,0.2L35.1,34c0,0.1-0.1,0.1-0.1,0.2c0,0.1,0,0.1,0.1,0.2
					c0.1,0,0.1,0.1,0.2,0.1c0.1,0,0.2-0.1,0.3-0.2l1.9-4.8c0-0.1,0.1-0.1,0.1-0.2C37.5,29.1,37.4,29,37.2,29z"/>
			</g>
			<g>
				<path fill="#48505A" d="M41.1,29.1h-2.5c-0.2,0-0.4,0.1-0.4,0.4c0,0.2,0.1,0.4,0.4,0.4h2l-1.8,4c0,0.1-0.1,0.1-0.1,0.2
					c0,0.1,0,0.2,0.1,0.3c0.1,0.1,0.2,0.1,0.3,0.1c0.1,0,0.2,0,0.3-0.1c0,0,0.1-0.2,0.2-0.4l1.7-4c0.1-0.2,0.1-0.4,0.1-0.4
					c0,0,0-0.1,0-0.1C41.4,29.1,41.3,29.1,41.1,29.1z"/>
			</g>
		</g>
		<path fill="#48505A" d="M29.3,26.2c0,0,0.1,0,0.1,0c1.3,0,2.2-1.4,2.2-3.3c0-1.9-0.9-3.3-2.2-3.3c-4.8,0-8.7,5.4-8.7,12.1
			c0,6.6,3.9,12,8.6,12.1c0,0,0.1,0,0.1,0c1.3,0,2.2-1.4,2.2-3.3c0-1.9-0.9-3.3-2.2-3.3c-2.6,0-4.4-2.3-4.4-5.5
			C25,28.5,26.8,26.3,29.3,26.2z M23.8,31.7c0,3.9,2.4,6.7,5.7,6.7c0.5,0,1,0.9,1,2.1c0,1.1-0.4,2-0.9,2.1c0,0-0.1,0-0.1,0
			c-4.1,0-7.5-4.9-7.5-10.9c0-6,3.4-10.9,7.5-10.9c0.5,0,1,0.9,1,2.1c0,1.1-0.4,2-0.9,2.1c0,0-0.1,0-0.1,0
			C26.2,25,23.8,27.8,23.8,31.7z"/>
	</g>
</g>
</svg>
