<?xml version="1.0" encoding="utf-8"?>
<!-- Generator: Adobe Illustrator 18.1.1, SVG Export Plug-In . SVG Version: 6.00 Build 0)  -->
<svg version="1.1" xmlns="http://www.w3.org/2000/svg" xmlns:xlink="http://www.w3.org/1999/xlink"
	 viewBox="0 0 28.4 28.4" enable-background="new 0 0 28.4 28.4" xml:space="preserve">
<polygon points="0,5.8 0,13.3 4.3,13.3 4.3,0 "/>
<g>
	<rect y="5.8" fill="#FFC709" width="26.5" height="20.8"/>
	<path fill="#FFFFFF" d="M13.4,23.7c-0.6,0-1.1-0.3-1.4-0.8l-6.3-9.6c-0.5-0.8-0.3-1.8,0.5-2.3c0.8-0.5,1.8-0.3,2.3,0.5l4.8,7.3
		l5.6-9.7c0.5-0.8,1.5-1.1,2.3-0.6c0.8,0.5,1.1,1.5,0.6,2.3l-6.9,12C14.6,23.4,14,23.7,13.4,23.7C13.4,23.7,13.4,23.7,13.4,23.7z"/>
</g>
</svg>
