<?xml version="1.0" encoding="utf-8"?>
<!-- Generator: Adobe Illustrator 15.0.0, SVG Export Plug-In . SVG Version: 6.00 Build 0)  -->
<!DOCTYPE svg PUBLIC "-//W3C//DTD SVG 1.1//EN" "http://www.w3.org/Graphics/SVG/1.1/DTD/svg11.dtd">
<svg version="1.1" id="Layer_1" xmlns="http://www.w3.org/2000/svg" xmlns:xlink="http://www.w3.org/1999/xlink" x="0px" y="0px"
	 width="1147px" height="599px" viewBox="-7.527 -192.227 1147 599" enable-background="new -7.527 -192.227 1147 599"
	 xml:space="preserve">
<path fill="#5C6368" d="M880.455,83.978c7.46-0.83,15.061-0.25,22.58-0.32c3.74-0.34,4.24,3.97,4.16,6.73
	c0.05,28.69,0.04,57.39,0.06,86.08c0.142,2.279-0.62,5.39-3.39,5.55c-6.93,0.41-13.9,0.12-20.83,0.149
	c-2.67,0.279-5.271-1.851-4.971-4.641c-0.09-29.39-0.011-58.789,0.121-88.18C878.235,87.408,878.255,84.788,880.455,83.978
	 M959.465,95.578c13.71-11.6,31.932-17.52,49.852-15.37c10.858,0.99,22.119,4.99,29.17,13.71c7.738,9.66,9.96,22.46,10.199,34.52
	c0.029,16.34,0.101,32.681,0.061,49.01c0.25,2.341-1.35,4.74-3.85,4.632c-7.222,0.18-14.472,0.278-21.682-0.052
	c-2.38-0.028-3.55-2.46-3.369-4.56c-0.149-15.24,0.141-30.49-0.101-45.74c-0.41-7.2-1.04-15.25-6.24-20.78
	c-4.77-4.85-12.06-5.419-18.489-5.29c-9.131,0.28-18.881,0.9-26.771,6.01c-6.15,4.039-8.56,11.65-8.72,18.68
	c-0.26,16.021,0.18,32.051-0.15,48.062c0.19,2.868-2.95,3.948-5.29,3.778c-6.63-0.06-13.27,0.2-19.89-0.13
	c-2.46,0.05-3.84-2.391-3.59-4.61c-0.052-29.35,0.06-58.699,0.039-88.049c-0.311-2.72,1.029-6.33,4.359-5.78
	c7.471,0.16,15.04-0.57,22.45,0.41C960.745,86.818,958.945,91.808,959.465,95.578 M1075.255,57.418c-0.13-2.21,1.22-4.92,3.771-4.73
	c6.68-0.24,13.38-0.04,20.069-0.09c1.989-0.17,4.601,0.56,4.75,2.95c0.851,8.52,0.09,17.12,0.399,25.66
	c7.93,0.2,15.86-0.19,23.79,0.13c2.24-0.19,3.93,1.94,3.85,4.07c0.2,5.68,0.19,11.38,0.07,17.06c0.16,2.31-1.63,4.65-4.05,4.54
	c-7.891,0.37-15.79-0.22-23.66,0.26c-0.021,16.62-0.011,33.25,0.01,49.881c7.091-2.25,14.62-1.431,21.83-3.062
	c2.431-0.779,5.78,0.511,5.86,3.391c0.22,6.63,0.14,13.279,0.039,19.91c-0.311,4.43-5.729,4-8.899,4.63
	c-13.37,1.76-29.061,2.819-39.87-6.761c-6.26-5.771-8.061-14.629-8.17-22.811c-0.061-15.09,0.051-30.18-0.04-45.27
	c-5.26-0.27-10.54,0.2-15.79-0.21c-1.99-0.07-3.641-1.74-3.68-3.73c-0.381-5.58-0.16-11.19-0.11-16.79
	c-0.109-2.21,1.011-5.04,3.63-5.01c5.291-0.51,10.631-0.05,15.95-0.19C1075.375,73.308,1074.975,65.358,1075.255,57.418
	 M488.375,70.518c0.08,14.98,0.1,29.97,0.03,44.95c17.37,0.25,34.87,1.04,52.18-0.74c8.44-1.18,18.74-4.3,21.44-13.46
	c1.789-7.22,1.699-15.76-2.86-21.98c-5.29-6.4-14.15-7.63-21.91-8.46C520.995,69.908,504.665,70.298,488.375,70.518 M458.275,48.418
	c-0.23-2.65,2.16-4.63,4.72-4.32c25.01-0.05,50.03-0.03,75.04,0c15.15,0.55,31.479,3.68,42.79,14.56
	c10.58,10.14,13.359,25.72,12.351,39.79c-0.609,12.28-5.531,24.931-15.689,32.39c-12.95,9.699-29.78,11.211-45.42,11.57
	c-14.562,0.141-29.11-0.17-43.66,0.16c0.08,11.619,0.13,23.25,0.05,34.869c0.39,2.682-1.78,4.92-4.44,4.7
	c-7.29,0.09-14.6,0.159-21.88-0.04c-2.91,0.07-4.43-3.051-4.13-5.6C458.105,133.808,457.915,91.108,458.275,48.418 M165.425,28.968
	c11.38-2.61,23.02,7.91,21.51,19.49c-0.71,9.75-10.2,17.55-19.9,16.32c-9.1-0.63-16.69-9.24-16.25-18.34
	C150.615,38.048,157.245,30.418,165.425,28.968 M715.485,1.108c47.318-6.81,96.858,18.31,119.6,60.29
	c19.74,34.81,20.01,79.689,0.62,114.7c-13.4,24.88-35.96,44.63-62.38,54.649c-27.37,10.461-58.72,10.489-85.931-0.471
	c-12.359-5.189-17.789-21.369-11.659-33.158c5.21-11.052,19.318-16.701,30.67-12.062c21.03,7.97,45.81,4.909,64.21-8.03
	c26.96-17.89,38.16-55.42,24.949-85.05c-12.351-30.69-48.119-49.27-80.319-41.27c-21.14,4.73-39.55,19.9-48.39,39.65
	c-7.78,16.84-8.17,36.75-1.602,54.041c3.95,11-1.08,24.398-11.609,29.648c-11.811,6.61-28.521,1.261-33.789-11.34
	c-9.262-22.959-10.631-48.939-4.53-72.89C626.555,43.478,668.125,6.648,715.485,1.108"/>
<path fill="#F47822" d="M723.396,83.908c11.09-2.38,23.278,0.8,31.67,8.48c12.488,10.94,15.71,30.84,7.039,45.068
	c-7.909,14.131-26.021,21.422-41.489,16.472c-15.021-4.142-26.091-18.931-25.91-34.49
	C694.275,102.758,707.025,87.028,723.396,83.908 M155.345,82.658c6.44-1.31,13.15-0.27,19.7-0.62c2.94-0.27,7.35,0.5,7.08,4.36
	c0.22,29.68,0.02,59.379,0.13,89.07c0.15,2.34-0.5,5.479-3.35,5.729c-6.94,0.53-13.95,0.2-20.91,0.182
	c-2.73,0.17-5.21-2.121-4.94-4.91c-0.08-29.37,0.01-58.74,0.02-88.11C153.145,86.318,153.155,83.628,155.345,82.658 M255.325,77.678
	c9.91-0.87,19.92-0.89,29.82,0.2c2.3,0.39,5.93,0.47,6.08,3.58c0.38,6.33-0.06,12.69-0.2,19.02c0.15,2.38-1.25,5.21-3.99,5.03
	c-14.18-0.94-28.98-2.34-42.73,2.11c-14.08,5.27-14.35,24.26-9.51,36.088c2.85,6,9.47,8.892,15.68,9.98
	c11.8,1.83,23.8,1.51,35.65,0.42c2.63-0.561,5.14,1.609,4.97,4.301c0.1,6.649,0.66,13.329,0.34,19.979
	c-0.71,3.829-5.43,3.14-8.33,3.659c-19.2,1.229-39.54,1.101-57.23-7.399c-12.6-5.931-21.18-18.579-23.13-32.229
	c-2.68-17.149-0.52-37.06,12.71-49.6C226.175,82.788,241.075,79.028,255.325,77.678 M310.865,48.378c-0.06-2.26,0.45-5.5,3.28-5.7
	c7.26-0.39,14.56-0.24,21.83-0.09c3.05-0.07,4.24,3.21,4.01,5.77c0.06,26.06-0.02,52.13,0.11,78.19
	c17.24-14.08,34.3-28.4,51.46-42.59c2.55-2.43,6.26-1.86,9.48-1.94c8.33,0.22,16.68-0.21,25,0.17c3.899-0.24,5.52,5.56,2.37,7.62
	c-16.29,13.46-33.01,26.431-49.311,39.89c17.62,14.972,35.89,29.171,53.58,44.04c3.03,2.25,1.13,7.641-2.609,7.58
	c-7.671,0.36-15.351-0.05-23.03,0.16c-3.03-0.03-6.64,0.439-8.78-2.229c-14.12-14.08-27.68-28.761-42.06-42.57
	c-5.35,4.311-10.77,8.55-16.08,12.92c-0.28,9.29,0.18,18.59-0.19,27.87c-0.05,2.94-3.33,4.13-5.82,3.97
	c-6.64-0.109-13.32,0.33-19.94-0.24c-2.78-0.359-3.54-3.359-3.34-5.729C310.865,133.108,310.835,90.738,310.865,48.378
	 M30.355,69.328c0.05,14.99,0.09,29.98,0.01,44.97c15.58,0.18,31.18,0.29,46.77-0.07c9.61-0.899,21.79-2.42,26.57-12.12
	c3.66-9.58,2.56-23.54-7.73-28.59c-10.84-5.13-23.25-4.32-34.94-4.48C50.815,69.218,40.565,68.658,30.355,69.328 M0.105,48.358
	c-0.39-2.95,1.59-6.25,4.9-5.85c25.02-0.01,50.06-0.09,75.08,0.05c16.57,0.63,34.99,4.3,46.05,17.79
	c11.19,14.18,11.94,34.28,6.87,51.01c-4.4,14.75-18.49,24.229-32.99,27.271c-22.88,4.851-46.48,1.141-69.64,2.74
	c-0.01,12.021,0.2,24.061-0.03,36.079c0.25,2.841-2.84,4.16-5.24,3.98c-7-0.06-14.02,0.229-21.01-0.15
	c-2.96-0.09-4.3-3.198-4.07-5.778C0.045,133.119,0.015,90.738,0.105,48.358 M888.345,30.718c12.852-3.81,25.972,9.85,21.591,22.54
	c-3.181,13.51-22.909,17.36-31.149,6.36C870.365,50.118,875.885,33.258,888.345,30.718"/>
</svg>
