<?xml version="1.0" encoding="utf-8"?>
<!-- Generator: Adobe Illustrator 18.1.1, SVG Export Plug-In . SVG Version: 6.00 Build 0)  -->
<svg version="1.1" id="Layer_1" xmlns="http://www.w3.org/2000/svg" xmlns:xlink="http://www.w3.org/1999/xlink" x="0px" y="0px"
	 viewBox="0 0 39.7 198.4" enable-background="new 0 0 39.7 198.4" xml:space="preserve">
<path fill="#BE1E2D" d="M34,169.4c-6.7,3.8-12.6,8.8-18.5,13.8c-0.4,0.4-0.9,0.8-1.3,1.2c25.8-48,36-108.4,11.6-158.8
	C21.4,16.4,15.7,7.6,8.2,0.8C5.9-1.2,2.5,2.1,4.8,4.2c14.4,12.9,22,32.5,26.2,50.8c6.2,27.4,4.5,56.3-3,83.2
	c-4.5,16.1-11,31.4-19.1,45.9c0.7-5.7,0.7-11.4,0-16.9c-0.4-3-5-1.7-4.6,1.3c1.2,8.8,0,18.6-2.7,27c-0.5,1.6,1.3,3.6,2.9,2.9
	c4.4-1.8,8.2-6.4,11.6-9.4c6.4-5.6,13-11.3,20.4-15.5C39.1,172,36.7,167.8,34,169.4z"/>
</svg>
