<?xml version="1.0" encoding="utf-8"?>
<!-- Generator: Adobe Illustrator 18.1.1, SVG Export Plug-In . SVG Version: 6.00 Build 0)  -->
<svg version="1.1" id="Layer_1" xmlns="http://www.w3.org/2000/svg" xmlns:xlink="http://www.w3.org/1999/xlink" x="0px" y="0px"
	 viewBox="0 0 113.4 164.4" enable-background="new 0 0 113.4 164.4" xml:space="preserve">
<g opacity="0.63">
	
		<linearGradient id="SVGID_1_" gradientUnits="userSpaceOnUse" x1="2667.7893" y1="88.3135" x2="2667.7893" y2="162.937" gradientTransform="matrix(-1 0 0 1 2714.4053 0)">
		<stop  offset="0" style="stop-color:#545757"/>
		<stop  offset="0.1665" style="stop-color:#505453"/>
		<stop  offset="0.4381" style="stop-color:#474A4A"/>
		<stop  offset="0.7789" style="stop-color:#373A3A"/>
		<stop  offset="1" style="stop-color:#2A2D2E"/>
	</linearGradient>
	<path fill="url(#SVGID_1_)" d="M27.4,109.7c0-11.8,9.6-21.3,21.3-21.3s21.3,9.6,21.3,21.3v53.3H54.7v-53.3c0-3.3-2.7-5.9-5.9-5.9
		c-3.3,0-5.9,2.7-5.9,5.9H47L35.1,127l-11.9-17.3H27.4z"/>
	
		<linearGradient id="SVGID_2_" gradientUnits="userSpaceOnUse" x1="2669.1689" y1="52.9419" x2="2669.1689" y2="162.9362" gradientTransform="matrix(-1 0 0 1 2714.4053 0)">
		<stop  offset="0" style="stop-color:#545757"/>
		<stop  offset="0.1665" style="stop-color:#505453"/>
		<stop  offset="0.4381" style="stop-color:#474A4A"/>
		<stop  offset="0.7789" style="stop-color:#373A3A"/>
		<stop  offset="1" style="stop-color:#2A2D2E"/>
	</linearGradient>
	<path fill="url(#SVGID_2_)" d="M2.3,64.9l17.3-11.9v4.2h15.5c29.3,0,53.1,23.8,53.1,53.1v52.7H72.8v-52.7
		c0-20.8-16.9-37.7-37.7-37.7H19.6v4.2L2.3,64.9z"/>
	
		<linearGradient id="SVGID_3_" gradientUnits="userSpaceOnUse" x1="2615.8467" y1="2.5912" x2="2615.8467" y2="162.9362" gradientTransform="matrix(-1 0 0 1 2714.4053 0)">
		<stop  offset="0" style="stop-color:#545757"/>
		<stop  offset="0.1665" style="stop-color:#505453"/>
		<stop  offset="0.4381" style="stop-color:#474A4A"/>
		<stop  offset="0.7789" style="stop-color:#373A3A"/>
		<stop  offset="1" style="stop-color:#2A2D2E"/>
	</linearGradient>
	<polygon fill="url(#SVGID_3_)" points="98.6,2.6 110.5,19.9 106.3,19.9 106.3,162.9 90.9,162.9 90.9,19.9 86.6,19.9 	"/>
	<defs>
		<filter id="Adobe_OpacityMaskFilter" filterUnits="userSpaceOnUse" x="85.2" y="1.2" width="26.8" height="161.7">
			<feFlood  style="flood-color:white;flood-opacity:1" result="back"/>
			<feBlend  in="SourceGraphic" in2="back" mode="normal"/>
		</filter>
	</defs>
	<mask maskUnits="userSpaceOnUse" x="85.2" y="1.2" width="26.8" height="161.7" id="SVGID_4_">
		<g filter="url(#Adobe_OpacityMaskFilter)">
			<defs>
				<filter id="Adobe_OpacityMaskFilter_1_" filterUnits="userSpaceOnUse" x="85.2" y="1.2" width="26.8" height="161.7">
					<feFlood  style="flood-color:white;flood-opacity:1" result="back"/>
					<feBlend  in="SourceGraphic" in2="back" mode="normal"/>
				</filter>
			</defs>
			<mask maskUnits="userSpaceOnUse" x="85.2" y="1.2" width="26.8" height="161.7" id="SVGID_4_">
				<g filter="url(#Adobe_OpacityMaskFilter_1_)">
				</g>
			</mask>
			
				<linearGradient id="SVGID_5_" gradientUnits="userSpaceOnUse" x1="2573.3032" y1="43.7768" x2="2658.3887" y2="128.8622" gradientTransform="matrix(-1 0 0 1 2714.4053 0)">
				<stop  offset="0" style="stop-color:#666666"/>
				<stop  offset="0.4621" style="stop-color:#6F6F6F"/>
				<stop  offset="1" style="stop-color:#808080"/>
			</linearGradient>
			<path mask="url(#SVGID_4_)" fill="url(#SVGID_5_)" d="M85.2,20.7h4.9v142.2H107V20.7h4.9L98.6,1.2L85.2,20.7z M86.6,19.9
				L98.6,2.6l11.9,17.3h-4.2v143H90.9v-143H86.6z"/>
		</g>
	</mask>
	
		<linearGradient id="SVGID_6_" gradientUnits="userSpaceOnUse" x1="2573.3032" y1="43.7768" x2="2658.3887" y2="128.8622" gradientTransform="matrix(-1 0 0 1 2714.4053 0)">
		<stop  offset="0" style="stop-color:#FFFFFF"/>
		<stop  offset="8.489490e-002" style="stop-color:#F4F5F5"/>
		<stop  offset="0.2235" style="stop-color:#E0E1E2"/>
		<stop  offset="0.3985" style="stop-color:#BFC1C3"/>
		<stop  offset="0.6031" style="stop-color:#939597"/>
		<stop  offset="0.8298" style="stop-color:#5D5E61"/>
		<stop  offset="1" style="stop-color:#000000"/>
	</linearGradient>
	<path fill="url(#SVGID_6_)" d="M85.2,20.7h4.9v142.2H107V20.7h4.9L98.6,1.2L85.2,20.7z M86.6,19.9L98.6,2.6l11.9,17.3h-4.2v143
		H90.9v-143H86.6z"/>
	<defs>
		<filter id="Adobe_OpacityMaskFilter_2_" filterUnits="userSpaceOnUse" x="0.9" y="51.5" width="88" height="111.5">
			<feFlood  style="flood-color:white;flood-opacity:1" result="back"/>
			<feBlend  in="SourceGraphic" in2="back" mode="normal"/>
		</filter>
	</defs>
	<mask maskUnits="userSpaceOnUse" x="0.9" y="51.5" width="88" height="111.5" id="SVGID_7_">
		<g filter="url(#Adobe_OpacityMaskFilter_2_)">
			<defs>
				<filter id="Adobe_OpacityMaskFilter_3_" filterUnits="userSpaceOnUse" x="0.9" y="51.5" width="88" height="111.5">
					<feFlood  style="flood-color:white;flood-opacity:1" result="back"/>
					<feBlend  in="SourceGraphic" in2="back" mode="normal"/>
				</filter>
			</defs>
			<mask maskUnits="userSpaceOnUse" x="0.9" y="51.5" width="88" height="111.5" id="SVGID_7_">
				<g filter="url(#Adobe_OpacityMaskFilter_3_)">
				</g>
			</mask>
			
				<linearGradient id="SVGID_8_" gradientUnits="userSpaceOnUse" x1="2634.5049" y1="78.9504" x2="2680.4487" y2="124.8941" gradientTransform="matrix(-1 0 0 1 2714.4053 0)">
				<stop  offset="0" style="stop-color:#666666"/>
				<stop  offset="0.4621" style="stop-color:#6F6F6F"/>
				<stop  offset="1" style="stop-color:#808080"/>
			</linearGradient>
			<path mask="url(#SVGID_7_)" fill="url(#SVGID_8_)" d="M20.4,78.3v-4.9h14.7c20.3,0,36.9,16.6,36.9,36.9v52.7h16.9v-52.7
				c0-29.7-24.2-53.8-53.8-53.8H20.4v-4.9L0.9,64.9L20.4,78.3z M19.6,72.6v4.2L2.3,64.9l17.3-11.9v4.2h15.5
				c29.3,0,53.1,23.8,53.1,53.1v52.7H72.8v-52.7c0-20.8-16.9-37.7-37.7-37.7H19.6z"/>
		</g>
	</mask>
	
		<linearGradient id="SVGID_9_" gradientUnits="userSpaceOnUse" x1="2634.5049" y1="78.9504" x2="2680.4487" y2="124.8941" gradientTransform="matrix(-1 0 0 1 2714.4053 0)">
		<stop  offset="0" style="stop-color:#FFFFFF"/>
		<stop  offset="8.489490e-002" style="stop-color:#F4F5F5"/>
		<stop  offset="0.2235" style="stop-color:#E0E1E2"/>
		<stop  offset="0.3985" style="stop-color:#BFC1C3"/>
		<stop  offset="0.6031" style="stop-color:#939597"/>
		<stop  offset="0.8298" style="stop-color:#5D5E61"/>
		<stop  offset="1" style="stop-color:#000000"/>
	</linearGradient>
	<path fill="url(#SVGID_9_)" d="M20.4,78.3v-4.9h14.7c20.3,0,36.9,16.6,36.9,36.9v52.7h16.9v-52.7c0-29.7-24.2-53.8-53.8-53.8H20.4
		v-4.9L0.9,64.9L20.4,78.3z M19.6,72.6v4.2L2.3,64.9l17.3-11.9v4.2h15.5c29.3,0,53.1,23.8,53.1,53.1v52.7H72.8v-52.7
		c0-20.8-16.9-37.7-37.7-37.7H19.6z"/>
	<defs>
		<filter id="Adobe_OpacityMaskFilter_4_" filterUnits="userSpaceOnUse" x="21.7" y="87.5" width="49.2" height="75.4">
			<feFlood  style="flood-color:white;flood-opacity:1" result="back"/>
			<feBlend  in="SourceGraphic" in2="back" mode="normal"/>
		</filter>
	</defs>
	<mask maskUnits="userSpaceOnUse" x="21.7" y="87.5" width="49.2" height="75.4" id="SVGID_10_">
		<g filter="url(#Adobe_OpacityMaskFilter_4_)">
			<defs>
				<filter id="Adobe_OpacityMaskFilter_5_" filterUnits="userSpaceOnUse" x="21.7" y="87.5" width="49.2" height="75.4">
					<feFlood  style="flood-color:white;flood-opacity:1" result="back"/>
					<feBlend  in="SourceGraphic" in2="back" mode="normal"/>
				</filter>
			</defs>
			<mask maskUnits="userSpaceOnUse" x="21.7" y="87.5" width="49.2" height="75.4" id="SVGID_10_">
				<g filter="url(#Adobe_OpacityMaskFilter_5_)">
				</g>
			</mask>
			
				<linearGradient id="SVGID_11_" gradientUnits="userSpaceOnUse" x1="2639.0083" y1="105.0616" x2="2678.6912" y2="144.7444" gradientTransform="matrix(-1 0 0 1 2714.4053 0)">
				<stop  offset="0" style="stop-color:#666666"/>
				<stop  offset="0.4621" style="stop-color:#6F6F6F"/>
				<stop  offset="1" style="stop-color:#808080"/>
			</linearGradient>
			<path mask="url(#SVGID_10_)" fill="url(#SVGID_11_)" d="M21.7,108.9l13.4,19.5l13.4-19.5h-4.9c0.4-2.5,2.5-4.4,5.1-4.4
				c2.9,0,5.2,2.3,5.2,5.2v53.3h16.9v-53.3c0-12.2-9.9-22.1-22.1-22.1c-11.9,0-21.7,9.5-22.1,21.3H21.7z M35.1,127l-11.9-17.3h4.2
				c0-11.8,9.6-21.3,21.3-21.3s21.3,9.6,21.3,21.3v53.3H54.7v-53.3c0-3.3-2.7-5.9-5.9-5.9c-3.3,0-5.9,2.7-5.9,5.9H47L35.1,127z"/>
		</g>
	</mask>
	
		<linearGradient id="SVGID_12_" gradientUnits="userSpaceOnUse" x1="2639.0083" y1="105.0616" x2="2678.6912" y2="144.7444" gradientTransform="matrix(-1 0 0 1 2714.4053 0)">
		<stop  offset="0" style="stop-color:#FFFFFF"/>
		<stop  offset="8.489490e-002" style="stop-color:#F4F5F5"/>
		<stop  offset="0.2235" style="stop-color:#E0E1E2"/>
		<stop  offset="0.3985" style="stop-color:#BFC1C3"/>
		<stop  offset="0.6031" style="stop-color:#939597"/>
		<stop  offset="0.8298" style="stop-color:#5D5E61"/>
		<stop  offset="1" style="stop-color:#000000"/>
	</linearGradient>
	<path fill="url(#SVGID_12_)" d="M21.7,108.9l13.4,19.5l13.4-19.5h-4.9c0.4-2.5,2.5-4.4,5.1-4.4c2.9,0,5.2,2.3,5.2,5.2v53.3h16.9
		v-53.3c0-12.2-9.9-22.1-22.1-22.1c-11.9,0-21.7,9.5-22.1,21.3H21.7z M35.1,127l-11.9-17.3h4.2c0-11.8,9.6-21.3,21.3-21.3
		s21.3,9.6,21.3,21.3v53.3H54.7v-53.3c0-3.3-2.7-5.9-5.9-5.9c-3.3,0-5.9,2.7-5.9,5.9H47L35.1,127z"/>
	<g opacity="0.5">
		<path d="M96.6,144.7h2.3v8.9h-2.3V144.7z M96.6,124.8h2.3v9.2h-2.3V124.8z M96.6,104.9h2.3v9.2h-2.3V104.9z M96.6,85h2.3v9.2h-2.3
			V85z M96.6,65.1h2.3v9.2h-2.3V65.1z M96.6,45.3h2.3v9.2h-2.3V45.3z"/>
		<rect x="96.6" y="26.1" width="2.3" height="8.5"/>
	</g>
	<g opacity="0.5">
		<path d="M60.5,157.5h2.3v5.4h-2.3V157.5z M60.5,138.7h2.3v8.7h-2.3V138.7z M60.5,119.9h2.3v8.7h-2.3V119.9z M57.7,102.6l1.8-1.5
			c2,2.5,3.1,5.5,3.3,8.6l-2.3,0.1C60.3,107.2,59.4,104.6,57.7,102.6z M41,97.4c2.8-1.5,6-2,9.1-1.6l-0.3,2.3
			c-2.6-0.4-5.4,0.1-7.7,1.3L41,97.4z"/>
		<path d="M33.2,110.4h2.3c0-1.4,0.2-2.8,0.7-4.2l-2.2-0.8C33.5,107.1,33.2,108.7,33.2,110.4z"/>
	</g>
	<g opacity="0.5">
		<path d="M78.5,153.9h2.3v8.1h-2.3V153.9z M78.5,134.8h2.3v8.8h-2.3V134.8z M78.5,115.7h2.3v8.8h-2.3V115.7z M76.3,97.2l2.2-0.7
			c0.9,2.9,1.6,5.8,2,8.8l-2.3,0.3C77.9,102.7,77.2,99.9,76.3,97.2z M67,81.2l1.7-1.6c2,2.2,3.9,4.7,5.4,7.2l-2,1.2
			C70.7,85.7,68.9,83.3,67,81.2z M52,70.5l0.9-2.1c2.8,1.2,5.4,2.7,7.9,4.4l-1.3,1.9C57.1,73,54.6,71.6,52,70.5z M34.3,66.8h-0.5
			v-2.3h0.5c2.8,0,5.7,0.3,8.5,0.8l-0.4,2.3C39.7,67.1,37,66.8,34.3,66.8z"/>
		<rect x="18.9" y="64.5" width="4.6" height="2.3"/>
	</g>
	<g>
		<path fill="#FFFFFF" d="M97.4,143.9h2.3v8.9h-2.3V143.9z M97.4,124h2.3v9.2h-2.3V124z M97.4,104.2h2.3v9.2h-2.3V104.2z M97.4,84.3
			h2.3v9.2h-2.3V84.3z M97.4,64.4h2.3v9.2h-2.3V64.4z M97.4,44.5h2.3v9.2h-2.3V44.5z"/>
		<rect x="97.4" y="25.3" fill="#FFFFFF" width="2.3" height="8.5"/>
	</g>
	<g>
		<path fill="#FFFFFF" d="M61.2,156.7h2.3v6.2h-2.3V156.7z M61.2,137.9h2.3v8.7h-2.3V137.9z M61.2,119.1h2.3v8.7h-2.3V119.1z
			 M58.4,101.8l1.8-1.5c2,2.5,3.1,5.5,3.3,8.6l-2.3,0.1C61.1,106.4,60.1,103.9,58.4,101.8z M41.8,96.6c2.8-1.5,6-2,9.1-1.6l-0.3,2.3
			c-2.6-0.4-5.4,0.1-7.7,1.3L41.8,96.6z"/>
		<path fill="#FFFFFF" d="M33.9,109.7h2.3c0-1.4,0.2-2.8,0.7-4.2l-2.2-0.8C34.2,106.3,33.9,108,33.9,109.7z"/>
	</g>
	<g>
		<path fill="#FFFFFF" d="M79.3,153.2h2.3v8.9h-2.3V153.2z M79.3,134.1h2.3v8.8h-2.3V134.1z M79.3,114.9h2.3v8.8h-2.3V114.9z
			 M77.1,96.4l2.2-0.7c0.9,2.9,1.6,5.8,2,8.8l-2.3,0.3C78.6,101.9,78,99.1,77.1,96.4z M67.8,80.5l1.7-1.6c2,2.2,3.9,4.7,5.4,7.2
			l-2,1.2C71.4,84.9,69.7,82.6,67.8,80.5z M52.7,69.7l0.9-2.1c2.8,1.2,5.4,2.7,7.9,4.4l-1.3,1.9C57.9,72.2,55.3,70.8,52.7,69.7z
			 M35.1,66h-0.5v-2.3h0.5c2.8,0,5.7,0.3,8.5,0.8l-0.4,2.3C40.5,66.3,37.8,66,35.1,66z"/>
		<rect x="19.6" y="63.7" fill="#FFFFFF" width="4.6" height="2.3"/>
	</g>
	<defs>
		<filter id="Adobe_OpacityMaskFilter_6_" filterUnits="userSpaceOnUse" x="54.1" y="142.6" width="53" height="20.4">
			<feColorMatrix  type="matrix" values="1 0 0 0 0  0 1 0 0 0  0 0 1 0 0  0 0 0 1 0"/>
		</filter>
	</defs>
	<mask maskUnits="userSpaceOnUse" x="54.1" y="142.6" width="53" height="20.4" id="SVGID_13_">
		<g filter="url(#Adobe_OpacityMaskFilter_6_)">
			<defs>
				<filter id="Adobe_OpacityMaskFilter_7_" filterUnits="userSpaceOnUse" x="54.1" y="142.6" width="53" height="20.4">
					<feFlood  style="flood-color:white;flood-opacity:1" result="back"/>
					<feBlend  in="SourceGraphic" in2="back" mode="normal"/>
				</filter>
			</defs>
			<mask maskUnits="userSpaceOnUse" x="54.1" y="142.6" width="53" height="20.4" id="SVGID_13_">
				<g filter="url(#Adobe_OpacityMaskFilter_7_)">
				</g>
			</mask>
			
				<linearGradient id="SVGID_14_" gradientUnits="userSpaceOnUse" x1="2633.8467" y1="162.9357" x2="2633.8467" y2="142.5611" gradientTransform="matrix(-1 0 0 1 2714.4053 0)">
				<stop  offset="0" style="stop-color:#FFFFFF"/>
				<stop  offset="0.1102" style="stop-color:#CBCBCB"/>
				<stop  offset="0.239" style="stop-color:#969696"/>
				<stop  offset="0.3696" style="stop-color:#686868"/>
				<stop  offset="0.4992" style="stop-color:#434343"/>
				<stop  offset="0.6276" style="stop-color:#252525"/>
				<stop  offset="0.7546" style="stop-color:#111111"/>
				<stop  offset="0.8795" style="stop-color:#040404"/>
				<stop  offset="1" style="stop-color:#000000"/>
			</linearGradient>
			<rect x="54.1" y="142.6" mask="url(#SVGID_13_)" fill="url(#SVGID_14_)" width="53" height="20.4"/>
		</g>
	</mask>
	
		<linearGradient id="SVGID_15_" gradientUnits="userSpaceOnUse" x1="2633.8467" y1="162.9357" x2="2633.8467" y2="142.5611" gradientTransform="matrix(-1 0 0 1 2714.4053 0)">
		<stop  offset="0" style="stop-color:#000000"/>
		<stop  offset="0.1102" style="stop-color:#595A5C"/>
		<stop  offset="0.239" style="stop-color:#838487"/>
		<stop  offset="0.3696" style="stop-color:#A5A8AA"/>
		<stop  offset="0.4992" style="stop-color:#C4C6C8"/>
		<stop  offset="0.6276" style="stop-color:#DCDEDF"/>
		<stop  offset="0.7546" style="stop-color:#EEEEEF"/>
		<stop  offset="0.8795" style="stop-color:#F9F9F9"/>
		<stop  offset="1" style="stop-color:#FFFFFF"/>
	</linearGradient>
	<rect x="54.1" y="142.6" opacity="0.8" fill="url(#SVGID_15_)" width="53" height="20.4"/>
</g>
</svg>
