<?xml version="1.0" encoding="utf-8"?>
<!-- Generator: Adobe Illustrator 18.1.1, SVG Export Plug-In . SVG Version: 6.00 Build 0)  -->
<svg version="1.1" id="Layer_1" xmlns="http://www.w3.org/2000/svg" xmlns:xlink="http://www.w3.org/1999/xlink" x="0px" y="0px"
	 viewBox="0 0 124.7 85" enable-background="new 0 0 124.7 85" xml:space="preserve">
<g opacity="0.63">
	
		<linearGradient id="SVGID_1_" gradientUnits="userSpaceOnUse" x1="-2227.1018" y1="3634.1321" x2="-2227.1018" y2="3711.3579" gradientTransform="matrix(4.489659e-011 1 -1 4.489659e-011 3711.1492 2261.0173)">
		<stop  offset="0" style="stop-color:#545757"/>
		<stop  offset="0.1665" style="stop-color:#505453"/>
		<stop  offset="0.4381" style="stop-color:#474A4A"/>
		<stop  offset="0.7789" style="stop-color:#373A3A"/>
		<stop  offset="1" style="stop-color:#2A2D2E"/>
	</linearGradient>
	<path fill="url(#SVGID_1_)" d="M73.2,34V17.8H77L66.2,2.1L55.4,17.8h3.8V34c0,9.8-8,17.7-17.7,17.7H-0.2v14h41.7
		C59,65.7,73.2,51.5,73.2,34z"/>
	
		<linearGradient id="SVGID_2_" gradientUnits="userSpaceOnUse" x1="-2216.8977" y1="3588.0381" x2="-2216.8977" y2="3711.3579" gradientTransform="matrix(4.489659e-011 1 -1 4.489659e-011 3711.1492 2261.0173)">
		<stop  offset="0" style="stop-color:#545757"/>
		<stop  offset="0.1665" style="stop-color:#505453"/>
		<stop  offset="0.4381" style="stop-color:#474A4A"/>
		<stop  offset="0.7789" style="stop-color:#373A3A"/>
		<stop  offset="1" style="stop-color:#2A2D2E"/>
	</linearGradient>
	<path fill="url(#SVGID_2_)" d="M89.6,34c0-5.5,4.5-10,10-10h7.8v3.8L123.1,17L107.4,6.2V10h-7.8c-13.2,0-24,10.8-24,24
		c0,18.8-15.3,34.1-34.1,34.1H-0.2v14h41.7C68,82.1,89.6,60.5,89.6,34z"/>
	<defs>
		<filter id="Adobe_OpacityMaskFilter" filterUnits="userSpaceOnUse" x="-0.2" y="0.9" width="78.6" height="65.5">
			<feFlood  style="flood-color:white;flood-opacity:1" result="back"/>
			<feBlend  in="SourceGraphic" in2="back" mode="normal"/>
		</filter>
	</defs>
	<mask maskUnits="userSpaceOnUse" x="-0.2" y="0.9" width="78.6" height="65.5" id="SVGID_3_">
		<g filter="url(#Adobe_OpacityMaskFilter)">
			<defs>
				<filter id="Adobe_OpacityMaskFilter_1_" filterUnits="userSpaceOnUse" x="-0.2" y="0.9" width="78.6" height="65.5">
					<feFlood  style="flood-color:white;flood-opacity:1" result="back"/>
					<feBlend  in="SourceGraphic" in2="back" mode="normal"/>
				</filter>
			</defs>
			<mask maskUnits="userSpaceOnUse" x="-0.2" y="0.9" width="78.6" height="65.5" id="SVGID_3_">
				<g filter="url(#Adobe_OpacityMaskFilter_1_)">
				</g>
			</mask>
			
				<linearGradient id="SVGID_4_" gradientUnits="userSpaceOnUse" x1="-2250.637" y1="3635.4824" x2="-2184.6968" y2="3701.4226" gradientTransform="matrix(4.489659e-011 1 -1 4.489659e-011 3711.1492 2261.0173)">
				<stop  offset="0" style="stop-color:#666666"/>
				<stop  offset="0.4621" style="stop-color:#6F6F6F"/>
				<stop  offset="1" style="stop-color:#808080"/>
			</linearGradient>
			<path mask="url(#SVGID_3_)" fill="url(#SVGID_4_)" d="M73.9,34V18.5h4.5L66.2,0.9L54.1,18.5h4.5V34c0,9.4-7.6,17-17,17H-0.2v15.3
				h41.7C59.3,66.4,73.9,51.9,73.9,34z M-0.2,65.7v-14h41.7c9.8,0,17.7-8,17.7-17.7V17.8h-3.8L66.2,2.1L77,17.8h-3.8V34
				c0,17.5-14.2,31.7-31.7,31.7H-0.2z"/>
		</g>
	</mask>
	
		<linearGradient id="SVGID_5_" gradientUnits="userSpaceOnUse" x1="-2250.637" y1="3635.4824" x2="-2184.6968" y2="3701.4226" gradientTransform="matrix(4.489659e-011 1 -1 4.489659e-011 3711.1492 2261.0173)">
		<stop  offset="0" style="stop-color:#FFFFFF"/>
		<stop  offset="8.489490e-002" style="stop-color:#F4F5F5"/>
		<stop  offset="0.2235" style="stop-color:#E0E1E2"/>
		<stop  offset="0.3985" style="stop-color:#BFC1C3"/>
		<stop  offset="0.6031" style="stop-color:#939597"/>
		<stop  offset="0.8298" style="stop-color:#5D5E61"/>
		<stop  offset="1" style="stop-color:#000000"/>
	</linearGradient>
	<path fill="url(#SVGID_5_)" d="M73.9,34V18.5h4.5L66.2,0.9L54.1,18.5h4.5V34c0,9.4-7.6,17-17,17H-0.2v15.3h41.7
		C59.3,66.4,73.9,51.9,73.9,34z M-0.2,65.7v-14h41.7c9.8,0,17.7-8,17.7-17.7V17.8h-3.8L66.2,2.1L77,17.8h-3.8V34
		c0,17.5-14.2,31.7-31.7,31.7H-0.2z"/>
	<defs>
		<filter id="Adobe_OpacityMaskFilter_2_" filterUnits="userSpaceOnUse" x="-0.2" y="4.8" width="124.5" height="77.9">
			<feFlood  style="flood-color:white;flood-opacity:1" result="back"/>
			<feBlend  in="SourceGraphic" in2="back" mode="normal"/>
		</filter>
	</defs>
	<mask maskUnits="userSpaceOnUse" x="-0.2" y="4.8" width="124.5" height="77.9" id="SVGID_6_">
		<g filter="url(#Adobe_OpacityMaskFilter_2_)">
			<defs>
				<filter id="Adobe_OpacityMaskFilter_3_" filterUnits="userSpaceOnUse" x="-0.2" y="4.8" width="124.5" height="77.9">
					<feFlood  style="flood-color:white;flood-opacity:1" result="back"/>
					<feBlend  in="SourceGraphic" in2="back" mode="normal"/>
				</filter>
			</defs>
			<mask maskUnits="userSpaceOnUse" x="-0.2" y="4.8" width="124.5" height="77.9" id="SVGID_6_">
				<g filter="url(#Adobe_OpacityMaskFilter_3_)">
				</g>
			</mask>
			
				<linearGradient id="SVGID_7_" gradientUnits="userSpaceOnUse" x1="-2261.7852" y1="3604.5522" x2="-2166.6094" y2="3699.7278" gradientTransform="matrix(4.489659e-011 1 -1 4.489659e-011 3711.1492 2261.0173)">
				<stop  offset="0" style="stop-color:#666666"/>
				<stop  offset="0.4621" style="stop-color:#6F6F6F"/>
				<stop  offset="1" style="stop-color:#808080"/>
			</linearGradient>
			<path mask="url(#SVGID_6_)" fill="url(#SVGID_7_)" d="M90.3,34c0-5.2,4.2-9.3,9.3-9.3h7.1v4.5L124.3,17L106.7,4.8v4.5h-7.1
				C86,9.3,74.9,20.4,74.9,34c0,18.4-15,33.4-33.4,33.4H-0.2v15.3h41.7C68.4,82.8,90.3,60.9,90.3,34z M-0.2,82.1v-14h41.7
				c18.8,0,34.1-15.3,34.1-34.1c0-13.2,10.8-24,24-24h7.8V6.2L123.1,17l-15.7,10.8V24h-7.8c-5.5,0-10,4.5-10,10
				c0,26.5-21.6,48.1-48.1,48.1H-0.2z"/>
		</g>
	</mask>
	
		<linearGradient id="SVGID_8_" gradientUnits="userSpaceOnUse" x1="-2261.7852" y1="3604.5522" x2="-2166.6094" y2="3699.7278" gradientTransform="matrix(4.489659e-011 1 -1 4.489659e-011 3711.1492 2261.0173)">
		<stop  offset="0" style="stop-color:#FFFFFF"/>
		<stop  offset="8.489490e-002" style="stop-color:#F4F5F5"/>
		<stop  offset="0.2235" style="stop-color:#E0E1E2"/>
		<stop  offset="0.3985" style="stop-color:#BFC1C3"/>
		<stop  offset="0.6031" style="stop-color:#939597"/>
		<stop  offset="0.8298" style="stop-color:#5D5E61"/>
		<stop  offset="1" style="stop-color:#000000"/>
	</linearGradient>
	<path fill="url(#SVGID_8_)" d="M90.3,34c0-5.2,4.2-9.3,9.3-9.3h7.1v4.5L124.3,17L106.7,4.8v4.5h-7.1C86,9.3,74.9,20.4,74.9,34
		c0,18.4-15,33.4-33.4,33.4H-0.2v15.3h41.7C68.4,82.8,90.3,60.9,90.3,34z M-0.2,82.1v-14h41.7c18.8,0,34.1-15.3,34.1-34.1
		c0-13.2,10.8-24,24-24h7.8V6.2L123.1,17l-15.7,10.8V24h-7.8c-5.5,0-10,4.5-10,10c0,26.5-21.6,48.1-48.1,48.1H-0.2z"/>
	<g opacity="0.5">
		<rect x="64.5" y="18.4" width="2.1" height="4.2"/>
		<path d="M-0.1,60.5v-2.1h7.3v2.1H-0.1z M17.2,60.5v-2.1h8.6v2.1H17.2z M35.9,60.5v-2.1h4.9c1.2,0,2.4-0.1,3.5-0.3l0.3,2.1
			c-1.3,0.2-2.5,0.3-3.8,0.3H35.9z M53.2,54.8c2.3-1.5,4.4-3.3,6.1-5.5l1.6,1.3c-1.9,2.4-4.1,4.4-6.7,5.9L53.2,54.8z M63.6,40.9
			c0.5-2,0.8-4.1,0.8-6.2v-2.1h2.1v2.1c0,2.3-0.3,4.5-0.9,6.7L63.6,40.9z"/>
	</g>
	<g opacity="0.5">
		<rect x="102.5" y="16.6" width="4.2" height="2.1"/>
		<path d="M-0.2,76.8v-2.1h4.9v2.1H-0.2z M14.1,76.8v-2.1h8v2.1H14.1z M31.5,76.8v-2.1h8v2.1H31.5z M48.6,74
			c2.6-0.5,5.1-1.3,7.5-2.3l0.8,1.9c-2.5,1-5.2,1.8-7.9,2.4L48.6,74z M64,67.3c2.1-1.5,4.1-3.2,5.9-5.1l1.5,1.4
			c-1.9,2-4,3.8-6.2,5.4L64,67.3z M75.4,54.9c1.3-2.2,2.4-4.6,3.3-7.1l2,0.7c-0.9,2.6-2.1,5.1-3.4,7.5L75.4,54.9z M80.6,39
			c0.2-1.4,0.2-2.9,0.2-4.3c0-1.3,0.1-2.6,0.4-3.8l2,0.4c-0.2,1.1-0.4,2.2-0.4,3.4c0,1.5-0.1,3-0.2,4.5L80.6,39z M85.8,22.2
			c2-2.1,4.4-3.6,7.1-4.6l0.7,2c-2.4,0.8-4.5,2.2-6.3,4L85.8,22.2z"/>
	</g>
	<g>
		<rect x="65.2" y="17.7" fill="#FFFFFF" width="2.1" height="4.2"/>
		<path fill="#FFFFFF" d="M-0.1,59.8v-2.1h8v2.1H-0.1z M17.9,59.8v-2.1h8.6v2.1H17.9z M36.6,59.8v-2.1h4.9c1.2,0,2.4-0.1,3.5-0.3
			l0.3,2.1c-1.3,0.2-2.5,0.3-3.8,0.3H36.6z M53.9,54.1c2.3-1.5,4.4-3.3,6.1-5.5l1.6,1.3c-1.9,2.4-4.1,4.4-6.7,5.9L53.9,54.1z
			 M64.3,40.2c0.5-2,0.8-4.1,0.8-6.2v-2.1h2.1V34c0,2.3-0.3,4.5-0.9,6.7L64.3,40.2z"/>
	</g>
	<g>
		<rect x="103.2" y="15.9" fill="#FFFFFF" width="4.2" height="2.1"/>
		<path fill="#FFFFFF" d="M-0.2,76.2v-2.1h5.6v2.1H-0.2z M14.8,76.2v-2.1h8v2.1H14.8z M32.2,76.2v-2.1h8v2.1H32.2z M49.3,73.3
			c2.6-0.5,5.1-1.3,7.5-2.3l0.8,1.9c-2.5,1-5.2,1.8-7.9,2.4L49.3,73.3z M64.7,66.6c2.1-1.5,4.1-3.2,5.9-5.1l1.5,1.4
			c-1.9,2-4,3.8-6.2,5.4L64.7,66.6z M76.1,54.2c1.3-2.2,2.4-4.6,3.3-7.1l2,0.7c-0.9,2.6-2.1,5.1-3.4,7.5L76.1,54.2z M81.3,38.3
			c0.2-1.4,0.2-2.9,0.2-4.3c0-1.3,0.1-2.6,0.4-3.8l2,0.4c-0.2,1.1-0.4,2.2-0.4,3.4c0,1.5-0.1,3-0.2,4.5L81.3,38.3z M86.5,21.5
			c2-2.1,4.4-3.6,7.1-4.6l0.7,2c-2.4,0.8-4.5,2.2-6.3,4L86.5,21.5z"/>
	</g>
	<defs>
		<filter id="Adobe_OpacityMaskFilter_4_" filterUnits="userSpaceOnUse" x="-0.2" y="51.4" width="18.5" height="30.8">
			<feColorMatrix  type="matrix" values="1 0 0 0 0  0 1 0 0 0  0 0 1 0 0  0 0 0 1 0"/>
		</filter>
	</defs>
	<mask maskUnits="userSpaceOnUse" x="-0.2" y="51.4" width="18.5" height="30.8" id="SVGID_9_">
		<g filter="url(#Adobe_OpacityMaskFilter_4_)">
			<defs>
				<filter id="Adobe_OpacityMaskFilter_5_" filterUnits="userSpaceOnUse" x="-0.2" y="51.4" width="18.5" height="30.8">
					<feFlood  style="flood-color:white;flood-opacity:1" result="back"/>
					<feBlend  in="SourceGraphic" in2="back" mode="normal"/>
				</filter>
			</defs>
			<mask maskUnits="userSpaceOnUse" x="-0.2" y="51.4" width="18.5" height="30.8" id="SVGID_9_">
				<g filter="url(#Adobe_OpacityMaskFilter_5_)">
				</g>
			</mask>
			
				<linearGradient id="SVGID_10_" gradientUnits="userSpaceOnUse" x1="-2194.2698" y1="3711.3567" x2="-2194.2698" y2="3692.8958" gradientTransform="matrix(4.489659e-011 1 -1 4.489659e-011 3711.1492 2261.0173)">
				<stop  offset="0" style="stop-color:#FFFFFF"/>
				<stop  offset="0.1102" style="stop-color:#CBCBCB"/>
				<stop  offset="0.239" style="stop-color:#969696"/>
				<stop  offset="0.3696" style="stop-color:#686868"/>
				<stop  offset="0.4992" style="stop-color:#434343"/>
				<stop  offset="0.6276" style="stop-color:#252525"/>
				<stop  offset="0.7546" style="stop-color:#111111"/>
				<stop  offset="0.8795" style="stop-color:#040404"/>
				<stop  offset="1" style="stop-color:#000000"/>
			</linearGradient>
			<rect x="-0.2" y="51.4" mask="url(#SVGID_9_)" fill="url(#SVGID_10_)" width="18.5" height="30.8"/>
		</g>
	</mask>
	
		<linearGradient id="SVGID_11_" gradientUnits="userSpaceOnUse" x1="-2194.2698" y1="3711.3567" x2="-2194.2698" y2="3692.8958" gradientTransform="matrix(4.489659e-011 1 -1 4.489659e-011 3711.1492 2261.0173)">
		<stop  offset="0" style="stop-color:#000000"/>
		<stop  offset="0.1102" style="stop-color:#595A5C"/>
		<stop  offset="0.239" style="stop-color:#838487"/>
		<stop  offset="0.3696" style="stop-color:#A5A8AA"/>
		<stop  offset="0.4992" style="stop-color:#C4C6C8"/>
		<stop  offset="0.6276" style="stop-color:#DCDEDF"/>
		<stop  offset="0.7546" style="stop-color:#EEEEEF"/>
		<stop  offset="0.8795" style="stop-color:#F9F9F9"/>
		<stop  offset="1" style="stop-color:#FFFFFF"/>
	</linearGradient>
	<rect x="-0.2" y="51.4" opacity="0.8" fill="url(#SVGID_11_)" width="18.5" height="30.8"/>
</g>
</svg>
